<svg width="548" height="657" viewBox="0 0 548 657" fill="none" xmlns="http://www.w3.org/2000/svg">
<path d="M183.686 414.722C182.377 414.916 180.837 415.018 180.525 416.579C180.284 417.789 180.375 419.034 181.099 420.083C182.336 421.877 184.174 422.923 186.388 422.554C188.367 422.223 191.086 420.427 191.086 418.196C191.086 416.938 190.181 415.672 189.433 414.731C188.631 413.722 187.938 412.661 186.928 411.836C185.566 410.723 184.465 410.613 183.24 411.926C182.57 412.644 181.936 413.623 181.643 414.563C181.498 415.027 181.605 415.398 181.605 415.863C181.605 416.482 181.49 415.569 181.605 415.263" stroke="#00ADB5" stroke-opacity="0.5" stroke-linecap="round" stroke-linejoin="round"/>
<path d="M190.469 418.267C191.583 419.257 192.527 420.153 194.497 420.201C195.876 420.235 197.254 419.89 198.546 419.519C199.472 419.254 202.438 417.847 200.034 417.733" stroke="#00ADB5" stroke-opacity="0.5" stroke-linecap="round" stroke-linejoin="round"/>
<path d="M201.955 409.627C200.485 411.252 198.457 414.438 199.219 416.879C199.487 417.738 199.876 418.316 200.379 419.05C201.393 420.526 202.963 420.066 204.388 419.68C205.42 419.401 206.647 418.52 207.043 417.519C207.588 416.136 206.451 413.975 205.501 413.024C204.44 411.961 203.6 410.668 202.418 409.738C202.103 409.491 201.864 409.222 201.454 409.314C200.993 409.416 200.803 409.858 201.416 409.858" stroke="#00ADB5" stroke-opacity="0.5" stroke-linecap="round" stroke-linejoin="round"/>
<path d="M305.866 186.867C304.557 187.061 303.017 187.163 302.706 188.724C302.464 189.934 302.556 191.179 303.28 192.228C304.517 194.022 306.355 195.068 308.568 194.699C310.548 194.368 313.266 192.572 313.266 190.341C313.266 189.083 312.362 187.817 311.613 186.876C310.811 185.866 310.118 184.806 309.108 183.98C307.746 182.867 306.646 182.758 305.421 184.07C304.751 184.789 304.117 185.768 303.823 186.708C303.679 187.172 303.785 187.543 303.785 188.008C303.785 188.627 303.67 187.714 303.785 187.407" stroke="#00ADB5" stroke-opacity="0.5" stroke-linecap="round" stroke-linejoin="round"/>
<path d="M312.65 190.412C313.764 191.402 314.708 192.298 316.677 192.346C318.056 192.38 319.435 192.035 320.727 191.664C321.652 191.399 324.618 189.992 322.215 189.878" stroke="#00ADB5" stroke-opacity="0.5" stroke-linecap="round" stroke-linejoin="round"/>
<path d="M324.135 181.772C322.666 183.397 320.637 186.583 321.399 189.024C321.667 189.883 322.056 190.461 322.559 191.195C323.573 192.671 325.143 192.211 326.568 191.825C327.601 191.546 328.828 190.665 329.223 189.663C329.769 188.281 328.631 186.12 327.681 185.169C326.62 184.106 325.78 182.813 324.598 181.883C324.283 181.636 324.045 181.367 323.634 181.459C323.173 181.561 322.983 182.003 323.596 182.003" stroke="#00ADB5" stroke-opacity="0.5" stroke-linecap="round" stroke-linejoin="round"/>
<path d="M193.125 139.608C200.672 136.007 206.772 130.053 212.907 124.439C217.728 120.026 222.784 115.666 228.105 111.858C229.155 111.107 230.638 109.594 232.057 110.239C233.464 110.878 234.274 112.616 235.386 113.646C238.123 116.182 240.585 119.28 242.835 122.26C245.313 125.54 241.598 127.356 239.301 129.503C236.692 131.943 234.2 134.459 231.351 136.611C228.642 138.657 226.466 141.478 223.986 143.794C220.207 147.324 216.672 151.083 212.904 154.616C210.661 156.72 208.087 158.437 205.927 160.616C205.17 161.379 204.47 162.388 203.597 163.024C202.896 163.534 201.926 161.571 201.676 161.201C199.695 158.267 196.626 156.259 194.686 153.19C193.467 151.26 192.646 148.879 191.186 147.116C190.489 146.275 188.747 144.381 189.51 143.152C190.29 141.897 192.503 141.296 193.71 140.398C194.651 139.697 195.795 138.832 196.866 138.345C197.644 137.991 198.408 137.363 199.104 136.88C200.936 135.608 198.995 136.152 197.756 136.625" stroke="#00ADB5" stroke-opacity="0.5" stroke-linecap="round" stroke-linejoin="round"/>
<path d="M194.278 145.369C198.872 148.217 202.993 152.34 206.58 156.405C206.67 156.508 207.543 157.117 207.41 157.343C207.153 157.778 204.171 155.813 203.887 155.616" stroke="#00ADB5" stroke-opacity="0.5" stroke-linecap="round" stroke-linejoin="round"/>
<path d="M198.832 141.251C202.557 142.319 204.777 144.352 207.784 146.526C209.124 147.495 210.488 148.369 211.69 149.508C212.255 150.043 212.657 150.748 213.179 151.324C213.894 152.115 210.974 150.407 210.63 150.21" stroke="#00ADB5" stroke-opacity="0.5" stroke-linecap="round" stroke-linejoin="round"/>
<path d="M204.244 138.059C206.851 140.415 209.471 142.738 212.159 144.999C213.18 145.858 214.34 146.647 215.222 147.658C216.788 149.455 214.737 147.124 214.041 146.466" stroke="#00ADB5" stroke-opacity="0.5" stroke-linecap="round" stroke-linejoin="round"/>
<path d="M207.896 135.813C209.83 136.99 211.849 138.131 213.486 139.718C214.158 140.369 214.715 141.137 215.433 141.74C216.317 142.483 217.092 143.35 217.982 144.072C219.25 145.101 219.441 145.401 217.935 144.11" stroke="#00ADB5" stroke-opacity="0.5" stroke-linecap="round" stroke-linejoin="round"/>
<path d="M212.604 132.356C214.737 134.028 216.712 135.725 218.495 137.765C219.285 138.668 219.922 139.711 220.924 140.404C221.843 141.038 222.486 141.222 221.411 140.19" stroke="#00ADB5" stroke-opacity="0.5" stroke-linecap="round" stroke-linejoin="round"/>
<path d="M217.137 128.833C219.015 130.246 220.866 131.536 222.367 133.357C223.053 134.19 223.595 135.148 224.362 135.916C225.92 137.477 224.849 136.69 223.722 135.631" stroke="#00ADB5" stroke-opacity="0.5" stroke-linecap="round" stroke-linejoin="round"/>
<path d="M221.317 125.177C223.954 127.703 226.162 130.662 228.803 133.157C230.582 134.837 228.034 132.145 227.617 131.667" stroke="#00ADB5" stroke-opacity="0.5" stroke-linecap="round" stroke-linejoin="round"/>
<path d="M226.421 122.271C228.641 121.364 230.943 120.282 232.135 118.064C232.464 117.453 232.888 116.92 233.023 116.231C233.209 115.285 233.172 115.691 232.472 116.303" stroke="#00ADB5" stroke-opacity="0.5" stroke-linecap="round" stroke-linejoin="round"/>
<path d="M229.994 125.323C231.754 123.688 233.721 121.902 235.01 119.826C235.653 118.791 236.878 117.527 235.165 119.025" stroke="#00ADB5" stroke-opacity="0.5" stroke-linecap="round" stroke-linejoin="round"/>
<path d="M235.635 128.751C237.238 127.006 238.665 125.383 240.141 123.559C240.617 122.969 242.07 122.205 240.322 122.672" stroke="#00ADB5" stroke-opacity="0.5" stroke-linecap="round" stroke-linejoin="round"/>
<path d="M234.36 127.869C236.038 126.429 237.935 124.752 239.265 122.934C239.62 122.449 239.893 121.908 240.218 121.404C240.762 120.56 240.796 120.845 239.971 120.932" stroke="#00ADB5" stroke-opacity="0.5" stroke-linecap="round" stroke-linejoin="round"/>
<path d="M198.808 148.278C207.168 144.877 209.231 135.647 216.043 130.426C216.872 129.791 217.545 129.086 218.512 128.646C219.158 128.352 219.956 128.211 220.544 127.835C220.903 127.606 223.882 125.326 221.812 126.268" stroke="#00ADB5" stroke-opacity="0.5" stroke-linecap="round" stroke-linejoin="round"/>
<path d="M194.915 145.81C195.854 144.667 196.687 143.69 197.877 142.863C198.072 142.728 198.373 142.705 198.534 142.524C198.852 142.165 199.334 141.641 199.456 141.179C199.939 139.357 202.297 139.694 203.55 138.781C204.741 137.912 205.888 137.032 207.103 136.174C208.441 135.228 209.06 134.399 210.135 133.187C211.122 132.074 212.081 130.948 213.126 129.894C213.981 129.032 215.324 128.247 215.868 127.144C216.482 125.899 218.052 124.473 219.465 124.704C219.95 124.784 223.515 126.853 221.185 125.53" stroke="#00ADB5" stroke-opacity="0.5" stroke-linecap="round" stroke-linejoin="round"/>
<path d="M202.48 150.262C208.763 146.943 212.249 139.708 216.492 134.242C218.055 132.229 220.288 130.891 221.924 128.913C222.624 128.066 224.169 127.168 222.372 127.182" stroke="#00ADB5" stroke-opacity="0.5" stroke-linecap="round" stroke-linejoin="round"/>
<path d="M204.723 152.312C210.416 148.807 214.06 142.286 218.202 137.118C220.086 134.768 221.905 132.367 223.812 130.036C224.682 128.972 226.198 128.308 224.252 129.397" stroke="#00ADB5" stroke-opacity="0.5" stroke-linecap="round" stroke-linejoin="round"/>
<path d="M206.966 155.969C210.518 152.5 213.386 148.757 216.292 144.744C218.059 142.304 219.587 139.561 221.662 137.364C222.853 136.103 223.769 134.627 224.85 133.291C225.286 132.752 225.586 132.125 226.034 131.591C227.042 130.389 226.339 131.477 225.637 132.129" stroke="#00ADB5" stroke-opacity="0.5" stroke-linecap="round" stroke-linejoin="round"/>
<path d="M207.801 157.49C209.569 155.755 212.159 154.086 213.338 151.837C213.766 151.02 214.825 149.048 215.568 148.548C216.551 147.888 217.019 146.482 217.733 145.598C218.478 144.678 219.207 143.78 220.015 142.904C220.772 142.083 221.015 140.642 221.952 139.936C222.997 139.149 223.505 137.93 224.339 136.991C225.06 136.178 226.433 135.335 227.328 134.714C227.824 134.369 228.17 133.9 228.732 133.644C229.872 133.126 229.132 133.391 228.089 133.352" stroke="#00ADB5" stroke-opacity="0.5" stroke-linecap="round" stroke-linejoin="round"/>
<path d="M226.278 122.921C227.74 123.307 229.543 123.572 230.876 124.37C231.736 124.885 232.485 125.402 230.919 124.464" stroke="#00ADB5" stroke-opacity="0.5" stroke-linecap="round" stroke-linejoin="round"/>
<path d="M227.796 120.476C229.882 121.022 231.357 121.634 233.057 122.744C234.17 123.471 233.991 123.27 232.833 122.571" stroke="#00ADB5" stroke-opacity="0.5" stroke-linecap="round" stroke-linejoin="round"/>
<path d="M230.327 118.01C232.118 119.019 233.856 120.165 235.708 121.044C236.797 121.56 236.226 121.524 235.385 121.118" stroke="#00ADB5" stroke-opacity="0.5" stroke-linecap="round" stroke-linejoin="round"/>
<path d="M231.768 116.039C233.651 116.897 235.388 117.753 237.122 118.833C237.913 119.326 237.195 119.358 236.595 118.959" stroke="#00ADB5" stroke-opacity="0.5" stroke-linecap="round" stroke-linejoin="round"/>
<path d="M227.202 122.062C228.625 120.368 230.052 118.762 231.348 117.025C231.716 116.532 233.958 113.785 232.989 115.191" stroke="#00ADB5" stroke-opacity="0.5" stroke-linecap="round" stroke-linejoin="round"/>
<path d="M228.697 125.037C230.548 123.397 233.216 121.211 233.814 118.762C233.99 118.042 234.371 117.321 234.93 116.825C235.497 116.323 236.09 116.095 235.243 116.943" stroke="#00ADB5" stroke-opacity="0.5" stroke-linecap="round" stroke-linejoin="round"/>
<path d="M227.212 124.981C229.186 122.851 230.874 121.42 231.989 118.797C232.279 118.115 232.611 117.551 233.086 117.014C233.59 116.446 234.313 115.914 233.34 116.931" stroke="#00ADB5" stroke-opacity="0.5" stroke-linecap="round" stroke-linejoin="round"/>
<path d="M234.547 126.03C235.456 126.607 236.368 127.142 237.313 127.622C237.703 127.821 237.22 127.437 237.054 127.374" stroke="#00ADB5" stroke-opacity="0.5" stroke-linecap="round" stroke-linejoin="round"/>
<path d="M236.319 123.178C236.38 123.23 239.954 126.297 239.32 125.613" stroke="#00ADB5" stroke-opacity="0.5" stroke-linecap="round" stroke-linejoin="round"/>
<path d="M238.442 122.066C239.23 122.825 241.645 125.047 240.795 124.358" stroke="#00ADB5" stroke-opacity="0.5" stroke-linecap="round" stroke-linejoin="round"/>
<path d="M233.491 127.241C234.798 126.023 237.663 123.608 238.365 121.735C238.642 120.997 239.909 120.049 238.717 121.064" stroke="#00ADB5" stroke-opacity="0.5" stroke-linecap="round" stroke-linejoin="round"/>
<path d="M233.656 127.604C233.78 127.704 236.279 130.4 236.812 129.093C237.084 128.425 237.438 127.556 238.105 127.189C239.276 126.543 239.492 124.512 240.69 123.967C242.05 123.348 241.923 122.311 240.657 121.943C240.159 121.799 240.552 120.817 240.035 120.894C239.562 120.965 239.312 120.79 238.783 120.887" stroke="#00ADB5" stroke-opacity="0.5" stroke-linecap="round" stroke-linejoin="round"/>
<path d="M226.113 122.557C226.97 124.198 227.132 124.792 228.515 125.476C228.888 125.661 229.376 125.405 229.659 125.549C230.219 125.834 231.327 125.84 231.746 125.323C232.587 124.283 232.897 123.611 234.185 122.979C234.999 122.579 235.653 121.638 236.029 120.857C236.442 119.999 237.187 119.353 237.624 118.491C237.81 118.125 236.309 117.18 236.295 116.546C236.292 116.366 234.51 116.36 234.213 116.21C233.854 116.027 233.689 115.769 233.517 115.389C233.265 114.834 232.819 115.523 232.142 115.576" stroke="#00ADB5" stroke-opacity="0.5" stroke-linecap="round" stroke-linejoin="round"/>
<path d="M196.434 143.365C198.458 144.136 200.224 145.129 202.046 146.229C203.629 147.184 205.417 147.692 206.989 148.618C208.108 149.277 209.27 150.781 210.096 151.768C210.371 152.097 210.577 152.405 210.772 152.776C211.22 153.627 210.754 151.57 210.707 151.344" stroke="#00ADB5" stroke-opacity="0.5" stroke-linecap="round" stroke-linejoin="round"/>
<path d="M215.982 127.896C216.544 128.486 218.817 131.745 218.368 129.296" stroke="#00ADB5" stroke-opacity="0.5" stroke-linecap="round" stroke-linejoin="round"/>
<path d="M220.661 354.111C220.902 355.352 221.514 356.158 221.989 357.288C222.312 358.056 222.916 358.652 223.253 359.406C223.616 360.221 224.161 361.178 224.667 361.903C225.102 362.524 225.386 363.113 225.935 363.662C226.903 364.633 227.636 365.789 228.61 366.746C230.025 368.136 232.421 369.95 234.482 369.835C235.144 369.798 235.877 370.004 236.527 369.906C237.084 369.821 237.761 369.793 238.319 369.89C239.236 370.048 240.232 369.889 241.109 370.079C241.583 370.181 242.099 370.031 242.578 370.12C243.2 370.236 243.929 370.265 244.562 370.265C246.636 370.265 248.705 370.252 250.774 369.989C251.895 369.846 253.005 370.219 254.115 370.021C255.156 369.836 256.543 370.027 257.523 369.598C258.727 369.071 259.924 368.241 260.854 367.31C261.321 366.843 261.674 366.285 261.99 365.707C262.405 364.949 262.636 364.131 263.053 363.374C264.506 360.735 265.335 357.798 266.512 355.047C266.789 354.399 267.245 353.874 267.578 353.275C267.662 353.123 267.7 352.93 267.837 352.785C268.35 352.24 267.367 352.183 266.915 351.977" stroke="#00ADB5" stroke-opacity="0.5" stroke-linecap="round" stroke-linejoin="round"/>
<path d="M220.43 354.227C221.46 352.878 222.333 351.887 223.829 351.124C225.081 350.486 226.38 349.727 227.512 348.894C229.251 347.613 231.645 347.042 233.762 346.657C236.067 346.237 238.335 345.747 240.681 345.747C241.406 345.747 242.124 345.965 242.85 345.977C243.719 345.992 244.59 346.019 245.455 346.093C246.783 346.206 248.145 346.179 249.474 346.208C251.329 346.248 253.105 347.21 254.959 347.359C256.063 347.447 257.349 347.612 258.422 347.913C258.824 348.026 259.282 348.102 259.657 348.285C260.124 348.512 260.451 348.896 260.88 349.163C262.263 350.025 263.81 350.431 265.305 351.086C265.764 351.287 266.552 351.631 267.059 351.631C267.758 351.631 267.721 352.922 267.721 351.631" stroke="#00ADB5" stroke-opacity="0.5" stroke-linecap="round" stroke-linejoin="round"/>
<path d="M267.606 352.439C266.752 353.585 266.143 354.022 264.931 354.692C263.979 355.217 262.925 355.589 261.859 355.785C260.863 355.967 259.776 356.111 258.767 356.192C257.928 356.259 257.071 356.161 256.214 356.259C254.274 356.48 252.318 356.981 250.447 357.528C247.777 358.309 245.198 358.391 242.44 358.541C239.43 358.704 236.411 358.474 233.461 357.861C232.466 357.655 231.414 357.84 230.402 357.8C229.286 357.757 228.193 357.449 227.144 357.086C226.702 356.933 226.295 356.698 225.832 356.592C225.29 356.468 224.738 356.517 224.2 356.387C223.45 356.206 222.574 355.878 221.941 355.438C221.665 355.247 221.251 355.089 221.035 354.801C220.972 354.716 220.891 354.529 220.891 354.429C220.891 354.19 220.696 354.25 221.006 354.458" stroke="#00ADB5" stroke-opacity="0.5" stroke-linecap="round" stroke-linejoin="round"/>
<path d="M242.838 364.15C243.539 364.072 244.465 364.085 244.175 363.182C244.082 362.892 243.848 362.861 243.599 362.778C242.858 362.53 241.532 363.009 241.253 363.784C240.754 365.174 241.7 366.676 243.186 366.194C243.591 366.063 244.308 365.777 244.566 365.409C244.874 364.967 244.411 365.098 244.105 364.669" stroke="#00ADB5" stroke-opacity="0.5" stroke-linecap="round" stroke-linejoin="round"/>
<path d="M240.706 362.65C241.824 362.201 242.395 362.015 243.526 362.015C243.981 362.015 244.209 361.983 244.61 362.246C245.274 362.68 245.502 363.506 245.433 364.233C245.374 364.847 245.172 365.688 244.956 366.271C244.796 366.705 244.399 366.78 243.993 366.861C243.622 366.935 242.813 366.727 242.521 366.89C242.211 367.062 241.263 367.12 241.023 366.8C240.803 366.505 240.566 366.378 240.405 366.021C240.252 365.68 240.183 365.354 240.06 365.015C239.891 364.549 239.587 363.276 240.217 362.996C240.586 362.831 240.744 362.733 241.167 362.733C241.287 362.733 241.39 362.823 241.513 362.823C241.69 362.823 241.171 362.707 240.994 362.707" stroke="#00ADB5" stroke-opacity="0.5" stroke-linecap="round" stroke-linejoin="round"/>
<path d="M242.722 358.034C243.535 356.982 244.276 355.897 245.116 354.874C245.567 354.325 246.127 353.852 246.614 353.326C248.006 351.821 249.424 350.173 250.486 348.413C251.531 346.68 252.958 344.792 254.508 343.49C255.327 342.803 256.059 342.042 256.771 341.25C257.462 340.481 257.78 339.405 258.435 338.593C258.942 337.964 262.26 333.682 262.838 336.285C263.065 337.308 262.069 338.024 261.443 338.651C260.733 339.362 260.019 340.265 259.414 341.074C258.831 341.853 258.121 342.538 257.555 343.324C256.784 344.393 255.381 345.157 254.819 346.368C254.355 347.367 253.585 348.17 253.007 349.096C252.207 350.379 251.269 351.45 250.326 352.624C249.578 353.555 248.407 354.32 247.878 355.381C247.435 356.267 246.651 356.64 245.935 357.214C245.624 357.464 245.245 357.602 244.969 357.948C244.877 358.063 244.712 358.196 244.626 358.066C244.577 357.993 244.39 358.158 244.425 358.24C244.548 358.527 244.249 357.549 244.22 357.458" stroke="#00ADB5" stroke-opacity="0.5" stroke-linecap="round" stroke-linejoin="round"/>
<path d="M242.261 358.323C242.482 358.435 243.874 359.493 243.874 358.64C243.874 358.382 244.206 357.951 244.322 357.688C244.411 357.489 243.615 357.68 243.497 357.832C243.342 358.032 243.042 358.194 243.529 358.207C243.903 358.218 244.195 358.057 244.479 357.836C244.561 357.772 245.66 357.946 244.681 357.919C244.16 357.905 243.654 357.919 243.154 357.919C242.722 357.919 243.598 357.804 243.724 357.804C243.825 357.804 242.994 358.299 242.85 358.137C242.815 358.098 242.755 357.989 242.895 357.919" stroke="#00ADB5" stroke-opacity="0.5" stroke-linecap="round" stroke-linejoin="round"/>
<path d="M223.944 354.054C224.009 354.088 226.067 355.168 226.075 355.035C226.085 354.873 225.97 354.733 226.05 354.573C226.398 353.875 226.849 354.21 227.448 354.48C227.916 354.691 227.206 352.357 228.616 353.342C229.345 353.851 229.539 353.77 229.419 352.916C229.329 352.269 229.552 352.267 230.107 352.336C230.485 352.383 230.756 352.465 230.971 352.105C231.233 351.668 231.528 351.42 232.063 351.608C232.506 351.765 232.9 352.204 233.205 351.644C233.339 351.397 233.226 350.659 233.65 350.801C233.916 350.889 234.266 351.237 234.568 351.128C234.798 351.045 234.974 350.332 235.234 350.445C235.505 350.562 235.781 351.078 236.124 350.955C236.289 350.895 236.595 350.354 236.271 350.419" stroke="#00ADB5" stroke-opacity="0.5" stroke-linecap="round" stroke-linejoin="round"/>
<path d="M232.066 353.015C232.78 353.597 235.454 356.705 236.239 354.384C236.38 353.968 236.402 353.145 236.796 353.826C237.12 354.388 237.609 354.778 238.14 354.246C238.492 353.894 238.648 353.296 239.151 353.112C239.613 352.942 239.951 353.811 240.335 353.304C240.645 352.895 240.495 352.191 240.041 351.945C239.892 351.864 239.85 352.142 239.785 352.208" stroke="#00ADB5" stroke-opacity="0.5" stroke-linecap="round" stroke-linejoin="round"/>
<path d="M238.229 349.439C239.342 349.247 240.743 348.858 241.589 349.855C241.982 350.318 241.944 350.908 241.685 351.432C241.496 351.815 240.987 352.006 240.661 351.631C240.395 351.323 240.945 350.816 241.141 350.628C241.816 349.984 242.815 351.015 243.026 351.714C243.203 352.298 241.608 353.652 241.801 353.073" stroke="#00ADB5" stroke-opacity="0.5" stroke-linecap="round" stroke-linejoin="round"/>
<path d="M256.95 351.4C257.28 351.286 259.406 350.601 258.998 351.733C258.789 352.315 257.987 352.626 257.462 352.817C257.213 352.907 256.571 352.891 256.988 352.528C257.349 352.214 257.858 352.067 258.332 352.105C260.181 352.256 257.596 354.382 257.065 354.676C256.034 355.245 254.631 355.845 253.551 355.15" stroke="#00ADB5" stroke-opacity="0.5" stroke-linecap="round" stroke-linejoin="round"/>
<path d="M245.602 347.996C246.041 348.711 246.568 349.429 246.943 350.179C247.072 350.437 246.514 349.776 246.383 349.519C246.348 349.451 246.108 348.693 246.085 348.698C245.805 348.761 245.739 350.047 245.663 350.285C245.304 351.408 244.417 350.978 243.548 350.894C242.495 350.792 242.024 351.832 241.442 352.496C240.976 353.027 240.793 353.191 241.109 353.823C241.365 354.335 241.471 354.831 241.109 355.294C240.827 355.655 240.474 355.884 240.133 356.182C239.821 356.455 240.269 356.41 240.21 356.246C240.05 355.798 239.064 355.891 238.741 355.913C237.542 355.992 236.321 355.691 235.144 355.765C234.519 355.805 233.93 356.154 233.311 356.246C232.681 356.339 233.513 356.887 233.749 357.044C234.155 357.315 232.955 356.468 232.514 356.259C231.774 355.908 231.092 355.637 230.709 354.862C230.325 354.084 229.988 353.554 229.339 352.983C229.116 352.787 229.089 352.487 229.198 352.221C229.451 351.603 230.012 351.1 230.568 350.766" stroke="#00ADB5" stroke-opacity="0.5" stroke-linecap="round" stroke-linejoin="round"/>
<path d="M245.487 350.304C244.043 349.295 242.852 348.86 241.154 348.631C240.557 348.55 239.921 348.137 239.532 347.679C239.186 347.273 239.382 347.381 238.975 347.932C238.419 348.686 238.006 348.009 237.295 348.208C236.206 348.512 235.271 349.526 234.165 349.714C233.862 349.766 233.935 349.259 233.557 349.477C232.92 349.845 232.433 350.193 231.688 350.31C231.238 350.381 230.384 350.678 230.453 351.227" stroke="#00ADB5" stroke-opacity="0.5" stroke-linecap="round" stroke-linejoin="round"/>
<path d="M255.279 350.304C256.673 350.438 258.084 350.421 259.472 350.57C259.96 350.622 260.21 350.82 260.553 351.14C260.863 351.429 261.347 352.11 261.792 352.147C262.433 352.2 262.764 351.934 263.363 351.746C263.723 351.633 264.873 351.746 264.496 351.746" stroke="#00ADB5" stroke-opacity="0.5" stroke-linecap="round" stroke-linejoin="round"/>
<path d="M254.243 351.862C252.745 352.85 251.945 354.349 250.342 355.249C250.024 355.427 249.053 355.773 249.126 356.358C249.179 356.782 252.424 355.455 252.918 355.208" stroke="#00ADB5" stroke-opacity="0.5" stroke-linecap="round" stroke-linejoin="round"/>
<path d="M259.83 353.246C260.644 353.853 261.347 354.721 262.365 354.413C262.64 354.329 263.216 354.297 263.401 354.111" stroke="#00ADB5" stroke-opacity="0.5" stroke-linecap="round" stroke-linejoin="round"/>
<path d="M461.132 328.097C456.925 328.905 453.867 330.122 451.201 333.555C449.511 335.73 449.882 339.155 450.989 341.461C452.813 345.262 457.298 347.408 461.344 347.594C466.057 347.811 472.609 346.424 473.575 340.794C474.093 337.776 471.214 334.923 469.866 332.448C468.77 330.434 467.118 327.72 464.81 326.868C463.868 326.521 461.681 326.642 460.995 327.581C460.689 328.001 460.295 328.444 460.072 328.915C459.891 329.297 460.085 327.943 460.042 327.551" stroke="#00ADB5" stroke-opacity="0.5" stroke-linecap="round" stroke-linejoin="round"/>
<path d="M462.903 338.467C461.768 339.051 459.926 339.438 460.92 340.718C461.146 341.01 461.469 340.994 461.745 340.718C461.98 340.483 463.167 339.245 462.29 338.952C460.502 338.355 461.156 341.928 462.433 340.347C463.12 339.498 462.159 338.662 461.298 339.179C460.272 339.796 461.084 340.872 461.889 339.937C462.495 339.233 462.011 338.693 461.351 339.354C460.76 339.946 461.36 340.889 461.941 340.089C462.537 339.268 461.858 338.573 461.139 339.293C460.307 340.126 461.208 340.039 461.798 339.49C462.392 338.937 461.338 339.019 460.995 339.452C460.2 340.459 461.446 340.316 461.646 339.452C461.941 338.183 460.634 341.099 461.268 338.876" stroke="#00ADB5" stroke-opacity="0.5" stroke-linecap="round" stroke-linejoin="round"/>
<path d="M458.271 334.237C459.481 335.836 460.721 337.353 461.737 338.952C462.019 339.395 461.794 339.84 461.949 339.831C462.522 339.799 463.11 339.695 463.72 339.695C465.118 339.695 466.218 339.013 467.565 339.013C469.196 339.013 471.593 338.588 468.897 337.239" stroke="#00ADB5" stroke-opacity="0.5" stroke-linecap="round" stroke-linejoin="round"/>
<path d="M456.908 327.96C456.653 326.67 455.41 323.543 457.725 323.874C458.556 323.993 459.114 324.854 459.603 325.398C460.874 326.813 460.738 328.521 458.679 328.642C458.14 328.674 457.38 329.745 456.772 328.984C456.083 328.121 456.786 328.179 456.908 327.141C456.988 326.463 456.545 326.519 456.355 325.853C456.21 325.342 456.512 324.782 456.635 324.412" stroke="#00ADB5" stroke-opacity="0.5" stroke-linecap="round" stroke-linejoin="round"/>
<path d="M457.726 326.459C457.713 326.785 457.212 329.722 458.278 329.241C458.635 329.08 458.944 328.846 459.088 328.476C459.228 328.116 459.079 327.902 458.921 327.551C458.515 326.646 457.336 325.241 457.695 327.278C457.922 328.563 459.355 328.263 459.466 327.035C459.552 326.098 458.371 324.842 457.62 325.913C457.088 326.671 458.035 328.342 458.588 327.172C458.87 326.577 458.197 325.067 457.483 325.807C456.751 326.567 457.851 328.169 458.573 327.52C459.287 326.88 458.802 324.925 458.028 325.671C457.321 326.353 458.382 327.711 458.921 326.671C459.523 325.512 458.198 324.638 457.786 325.853C457.418 326.937 458.565 328.104 458.831 326.626C459.033 325.501 456.969 324.902 456.969 326.247C456.969 327.485 458.074 327.359 458.074 326.232C458.074 325.057 456.893 325.322 457.385 326.308C457.877 327.294 458.537 325.544 457.983 324.988C457.336 324.341 456.479 325.342 457.241 325.966C457.76 326.392 458.47 324.627 457.597 324.299C456.843 324.015 457.26 325.557 457.521 325.208C457.926 324.667 457.305 324.305 457.733 324.412C458.11 324.507 459.026 324.708 459.285 325.042C459.488 325.304 460.314 326.763 460.314 327.141C460.314 328.3 458.544 328.925 457.529 328.635C456.8 328.426 456.584 328.942 456.84 328.771C457.46 328.357 457.589 327.278 457.589 327.687" stroke="#00ADB5" stroke-opacity="0.5" stroke-linecap="round" stroke-linejoin="round"/>
<path d="M457.589 347.473C456.888 348.963 456.265 350.461 455.44 351.869C455.254 352.187 454.905 352.834 454.864 353.204C454.754 354.199 455.752 350.829 455.954 350.338" stroke="#00ADB5" stroke-opacity="0.5" stroke-linecap="round" stroke-linejoin="round"/>
<path d="M471.35 344.607C473.075 346.789 474.978 348.345 476.323 350.74C476.455 350.976 476.685 351.163 476.868 351.346C477.48 351.959 475.732 350.038 475.165 349.383" stroke="#00ADB5" stroke-opacity="0.5" stroke-linecap="round" stroke-linejoin="round"/>
<path d="M357.065 217.382C358.144 221.46 362.31 236.621 363.307 242.16C366.051 257.411 361.745 236.6 361.735 243.336" stroke="#00ADB5" stroke-opacity="0.5" stroke-width="2" stroke-linecap="round" stroke-linejoin="round"/>
<path d="M349.754 223.975C349.386 217.77 347.996 209.157 356.684 210.043C360.772 210.46 365.274 212.891 367.822 216.141C371.76 221.165 369.683 228.952 365.428 232.951C363.163 235.078 360.966 236.144 358.003 236.949C352.982 238.312 356.944 231.328 357.753 229.413" stroke="#00ADB5" stroke-opacity="0.5" stroke-width="2" stroke-linecap="round" stroke-linejoin="round"/>
<path d="M372.352 231.559C380.985 231.097 388.931 229.395 392.02 238.772C393.814 244.221 396 250.842 394.504 256.584C393.152 261.773 390.24 265.018 384.916 262.807C377.308 259.648 377.318 253.701 381.459 247.771C382.984 245.587 388.823 241.215 388.827 238.662" stroke="#00ADB5" stroke-opacity="0.5" stroke-width="2" stroke-linecap="round" stroke-linejoin="round"/>
<path d="M387.912 221.441C387.618 223.716 387.613 239.809 383.264 239.963C382.448 239.992 381.764 240.417 381.051 240.772C378.313 242.138 379.979 240.909 381.001 239.488C383.316 236.269 388.006 237.458 390.353 233.186C392.903 228.547 394.077 226.266 390.422 222.677C387.861 220.162 388.986 215.883 386.969 221.911" stroke="#00ADB5" stroke-opacity="0.5" stroke-width="2" stroke-linecap="round" stroke-linejoin="round"/>
<path d="M400.653 206.837C403.99 214.36 407.039 224.157 412.392 230.705C413.806 232.436 414.6 230.93 414.578 229.582C414.551 227.879 414.072 226.161 413.579 224.548" stroke="#00ADB5" stroke-opacity="0.5" stroke-width="2" stroke-linecap="round" stroke-linejoin="round"/>
<path d="M390.966 226.399C396.26 224.313 409.258 222.202 411.473 215.581" stroke="#00ADB5" stroke-opacity="0.5" stroke-width="2" stroke-linecap="round" stroke-linejoin="round"/>
<path d="M407.247 207.083C430.192 247.279 407.838 219.027 419.5 211.676C426.58 207.213 427.17 228.245 429.132 219.147" stroke="#00ADB5" stroke-opacity="0.5" stroke-width="2" stroke-linecap="round" stroke-linejoin="round"/>
<path d="M427.74 205.7C428.572 208.193 431.368 224.649 437.189 220.89C439.792 219.209 442.824 216.004 443.325 212.854C443.864 209.473 441.755 200.885 436.984 201.81C434.806 202.232 431.164 202.334 429.744 204.406C428.371 206.409 427.504 211.101 429.152 206.174" stroke="#00ADB5" stroke-opacity="0.5" stroke-width="2" stroke-linecap="round" stroke-linejoin="round"/>
<path d="M443.997 201.716C450.504 197.532 458.152 196.158 459.142 206.012C459.266 207.248 459.289 208.806 459.856 209.944C460.512 211.264 459.163 206.717 457.886 205.984" stroke="#00ADB5" stroke-opacity="0.5" stroke-width="2" stroke-linecap="round" stroke-linejoin="round"/>
<path d="M443.52 205.489C443.814 210.64 443.079 217.617 445.482 222.449C445.564 222.614 446.135 223.875 445.847 223.184C445.278 221.817 445.042 220.889 443.969 219.407" stroke="#00ADB5" stroke-opacity="0.5" stroke-width="2" stroke-linecap="round" stroke-linejoin="round"/>
<path d="M278.833 252.118C277.933 260.489 279.507 286.264 265.309 284.659C262.349 284.324 259.66 283.828 258.254 281.036C256.781 278.111 255.563 275.566 255.416 272.244C255.235 268.163 256.857 266.238 260.151 264.397C261.306 263.751 258.824 266.366 258.604 266.619C257.157 268.284 262.069 266.254 263.946 265.838" stroke="#00ADB5" stroke-opacity="0.5" stroke-width="2" stroke-linecap="round" stroke-linejoin="round"/>
<path d="M297.06 256.14C289.879 256.813 279.743 258.177 278.584 267.174C277.956 272.054 285.201 272.647 288.345 274.309C293.748 277.165 297.848 286.479 291.787 290.578C287.573 293.428 284.385 291.914 280.286 292.198C276.121 292.487 279.021 290.95 281.49 290.529" stroke="#00ADB5" stroke-opacity="0.5" stroke-width="2" stroke-linecap="round" stroke-linejoin="round"/>
<path d="M335.973 34.6261C335.397 40.4021 335.047 46.2372 334.336 51.9995C334.267 52.5539 333.722 54.7425 334.367 52.9731C334.838 51.6793 334.686 50.331 335.442 49.1042C336.485 47.4143 341.194 40.9775 343.406 41.6286C347.839 42.9335 343.365 51.169 342.096 53.5289C341.658 54.3428 340.465 56.1083 341.083 57.021C341.906 58.2377 343.429 53.741 343.494 53.6035" stroke="#00ADB5" stroke-opacity="0.5" stroke-width="2" stroke-linecap="round" stroke-linejoin="round"/>
<path d="M353.482 38.4188C352.956 40.9994 348.543 53.7368 352.795 55.8466C353.995 56.442 356.65 55.3182 357.475 54.3493C358.334 53.3404 357.885 51.7954 357.792 50.6244" stroke="#00ADB5" stroke-opacity="0.5" stroke-width="2" stroke-linecap="round" stroke-linejoin="round"/>
<path d="M344.733 38.6971C349.398 40.0866 354.196 41.0118 358.832 42.4453C359.926 42.7837 360.336 42.937 360.925 43.9146C361.841 45.4352 359.407 44.0462 358.987 43.5856" stroke="#00ADB5" stroke-opacity="0.5" stroke-width="2" stroke-linecap="round" stroke-linejoin="round"/>
<path d="M365.831 47.7256C364.76 50.9633 363.754 54.2417 362.531 57.4278C362.289 58.0613 362.252 58.293 362.121 57.8091C361.995 57.3431 361.872 57.0684 362.079 56.5762C363.177 53.9602 365.74 50.2005 368.158 48.7394C370.768 47.1615 369.344 52.4615 368.993 53.5344C368.599 54.7393 367.538 58.0419 368.745 54.8463C369.462 52.9445 371.11 48.218 373.888 48.9059C375.57 49.3225 375.182 51.6005 374.885 52.805C374.336 55.0263 373.791 57.2327 373.241 59.4613C372.437 62.718 372.871 60.9593 373.459 58.5795" stroke="#00ADB5" stroke-opacity="0.5" stroke-width="2" stroke-linecap="round" stroke-linejoin="round"/>
<path d="M386.569 40.6365C384.893 46.6737 382.837 52.6937 381.393 58.7937C381.224 59.5091 380.854 62.158 381.992 62.4735C383.072 62.7733 387.341 60.2046 386.298 59.3141" stroke="#00ADB5" stroke-opacity="0.5" stroke-width="2" stroke-linecap="round" stroke-linejoin="round"/>
<path d="M96.4273 286.897C92.464 294.437 88.5135 301.985 84.5395 309.52C83.4068 311.667 81.1712 318.238 80.8944 315.825C80.5191 312.553 82.5151 307.973 83.3621 304.907C84.5574 300.58 86.9913 291.935 93.0562 291.967C97.6342 291.991 102.781 298.715 103.491 302.91C103.992 305.872 105.45 302.527 107.428 301.633" stroke="#00ADB5" stroke-opacity="0.5" stroke-width="2" stroke-linecap="round" stroke-linejoin="round"/>
<path d="M108.712 311.055C111.376 317.258 115.302 327.745 123.386 321.976C127.101 319.324 125.255 314.787 121.588 313.346C112.601 309.815 101.276 319.676 99.0347 327.782C96.7938 335.885 105.64 338.37 111.725 339.171C115.092 339.613 114.337 336.731 117.234 335.727" stroke="#00ADB5" stroke-opacity="0.5" stroke-width="2" stroke-linecap="round" stroke-linejoin="round"/>
<path d="M131.095 332.504C124.113 329.584 114.864 326.981 110.93 335.916C109.033 340.223 117.52 340.728 120.038 340.61C124.846 340.383 135.552 329.237 131.945 332.428C128.779 335.229 125.576 338.535 124.274 342.672C123.434 345.343 124.399 351.246 127.492 347.17" stroke="#00ADB5" stroke-opacity="0.5" stroke-width="2" stroke-linecap="round" stroke-linejoin="round"/>
<path d="M158.244 338.094C148.111 339.067 136.102 339.577 132.507 350.979C130.74 356.584 134.886 360.482 139.882 362.127C143.373 363.276 146.932 360.781 149.05 358.249" stroke="#00ADB5" stroke-opacity="0.5" stroke-width="2" stroke-linecap="round" stroke-linejoin="round"/>
<path d="M167.448 339.64C166.892 340.317 141.931 367.564 153.829 367.774C157.124 367.833 160.505 365.913 162.773 363.755" stroke="#00ADB5" stroke-opacity="0.5" stroke-width="2" stroke-linecap="round" stroke-linejoin="round"/>
<path d="M146.305 344.598C151.098 347.908 155.823 351.413 161.08 353.971C162.445 354.636 164.72 354.953 165.66 356.331C166.188 357.105 165.358 355.266 165.266 354.998" stroke="#00ADB5" stroke-opacity="0.5" stroke-width="2" stroke-linecap="round" stroke-linejoin="round"/>
<path d="M92.8483 126.448C96.8701 133.336 109.642 153.433 104.457 147.374C101.143 143.501 98.6254 138.362 96.524 133.78C94.3189 128.973 92.2483 120.394 100.651 120.829C107.864 121.203 110.743 128.579 112.012 134.626C112.571 137.293 112.714 139.365 113.909 141.791C115.13 144.272 115.198 134.714 115.662 132.235" stroke="#00ADB5" stroke-opacity="0.5" stroke-width="2" stroke-linecap="round" stroke-linejoin="round"/>
<path d="M118.833 112.438C119.057 113.48 122.533 137.301 127.579 132.72C129.704 130.791 130.171 126.036 130.444 123.431C131.296 115.29 127.862 114.284 122.155 112.561C119.433 111.739 118.875 111.776 118.127 114.583C116.592 120.347 119.012 118.728 122.113 115.523" stroke="#00ADB5" stroke-opacity="0.5" stroke-width="2" stroke-linecap="round" stroke-linejoin="round"/>
<path d="M140.773 105.718C137.97 110.45 134.395 116.016 136.367 121.813C137.185 124.217 139.088 123.582 140.421 122.228C142.524 120.092 143.621 116.582 143.504 113.649C143.28 108.025 139.763 103.214 136.072 99.2187C135.561 98.6647 130.9 94.8169 131.813 98.1206C133.452 104.055 138.015 109.763 141.194 114.92C146.434 123.42 148.041 120.119 150.395 112.14" stroke="#00ADB5" stroke-opacity="0.5" stroke-width="2" stroke-linecap="round" stroke-linejoin="round"/>
<path d="M150.893 107.189C152.633 108.814 166.363 118.636 166.789 109.924C166.827 109.134 165.821 108.887 165.49 108.213C164.635 106.478 163.219 105.333 162.449 104.423" stroke="#00ADB5" stroke-opacity="0.5" stroke-width="2" stroke-linecap="round" stroke-linejoin="round"/>
<path d="M152.038 113.093C146.602 105.943 139.008 98.5096 146.792 91.4412C150.072 88.463 156.878 90.818 156.7 95.7942C156.617 98.1118 156.129 103.843 152.805 104.448C151.048 104.768 150.238 103.615 151.863 102.005" stroke="#00ADB5" stroke-opacity="0.5" stroke-width="2" stroke-linecap="round" stroke-linejoin="round"/>
<path d="M164.448 83.4399C167.963 85.6798 193.008 100.503 179.89 106.982C177.845 107.992 176.046 105.639 174.959 104.125C172.509 100.711 179.647 95.8687 179.944 92.2531" stroke="#00ADB5" stroke-opacity="0.5" stroke-width="2" stroke-linecap="round" stroke-linejoin="round"/>
<path d="M185.005 71.5232C182.959 73.1964 171.225 83.5892 180.452 85.5986C185.549 86.7085 190.366 81.622 194.24 79.083C200.48 74.9929 201.798 82.8634 200.083 87.3056C199.033 90.0262 190.266 98.9292 192.665 91.8513" stroke="#00ADB5" stroke-opacity="0.5" stroke-width="2" stroke-linecap="round" stroke-linejoin="round"/>
<path d="M254.261 458.348C246.455 462.282 236.226 469.457 244.665 478.977C248.713 483.543 256.186 481.672 261.517 481.145C263.015 480.997 267.148 482.439 266.023 481.438C263.589 479.271 261.838 479.411 261.108 475.753" stroke="#00ADB5" stroke-opacity="0.5" stroke-width="2" stroke-linecap="round" stroke-linejoin="round"/>
<path d="M277.434 455.71C277.434 461.474 277.38 465.6 283.285 467.842C285.835 468.81 287.436 469.698 288.113 472.559C288.878 475.794 286.625 480.478 283.958 482.288C280.661 484.524 276.52 485.305 272.811 483.782C269.634 482.478 273.146 480.937 274.8 479.445" stroke="#00ADB5" stroke-opacity="0.5" stroke-width="2" stroke-linecap="round" stroke-linejoin="round"/>
<path d="M303.239 449.381C302.203 453.401 297.534 464.15 301.688 468.31C303.365 469.99 306.612 469.057 308.68 469.541C310.738 470.023 312.503 471.6 313.771 473.233C315.779 475.818 313.868 479.737 311.548 481.555C307.948 484.376 302.806 483.137 298.616 483.137C296.328 483.137 297.891 482.975 299.025 481.555" stroke="#00ADB5" stroke-opacity="0.5" stroke-width="2" stroke-linecap="round" stroke-linejoin="round"/>
<path d="M294.16 399.36C298.217 397.809 305.742 395.342 309.666 392.562C313.809 389.627 309.472 388.784 307.267 389.485C303.533 390.673 301.277 394.591 300.011 398.042C296.679 407.127 307.279 417.397 316.191 416.356C324.426 415.393 325.575 411.355 326.811 405.162" stroke="#00ADB5" stroke-opacity="0.5" stroke-width="2" stroke-linecap="round" stroke-linejoin="round"/>
<path d="M332.078 394.613C331.155 396.118 322.39 414.192 319.965 405.69" stroke="#00ADB5" stroke-opacity="0.5" stroke-width="2" stroke-linecap="round" stroke-linejoin="round"/>
<path d="M315.752 395.141C319.45 400.091 328.384 417.792 337.344 417.293C338.644 417.221 336.92 412.211 336.818 411.492" stroke="#00ADB5" stroke-opacity="0.5" stroke-width="2" stroke-linecap="round" stroke-linejoin="round"/>
<path d="M339.977 395.141C342.02 407.126 346.112 443.35 343.781 431.417C342.579 425.265 331.603 391.971 341.265 393.353C345.455 393.953 356.151 400.076 353.348 405.69C351.772 408.846 342.005 409.949 346.297 407.799" stroke="#00ADB5" stroke-opacity="0.5" stroke-width="2" stroke-linecap="round" stroke-linejoin="round"/>
<path d="M359.99 403.58C361.291 410.361 362.543 417.137 363.676 423.945C363.87 425.111 363.61 424.15 363.267 423.506C361.113 419.46 358.163 412.251 358.264 407.712C358.359 403.412 364.266 400.479 367.363 403.58" stroke="#00ADB5" stroke-opacity="0.5" stroke-width="2" stroke-linecap="round" stroke-linejoin="round"/>
<path d="M376.843 411.492C376.706 416.455 380.301 433.832 388.838 428.78C390.061 428.056 393.079 426.287 393.168 424.678C393.216 423.819 391.657 423.623 391.062 423.623C389.497 423.623 389.106 421.679 388.429 420.458" stroke="#00ADB5" stroke-opacity="0.5" stroke-width="2" stroke-linecap="round" stroke-linejoin="round"/>
<path d="M374.209 413.074C378.822 408.295 384.01 401.71 388.107 410.232C389.306 412.726 388.888 415.732 387.902 418.231C386.308 422.268 380.601 423.86 382.109 417.821" stroke="#00ADB5" stroke-opacity="0.5" stroke-width="2" stroke-linecap="round" stroke-linejoin="round"/>
<path d="M402.648 403.58C406.257 409.356 420.855 424.928 411.279 432.033C408.215 434.305 406.215 434.295 402.765 434.172C397.894 433.997 400.468 432.761 402.121 428.897" stroke="#00ADB5" stroke-opacity="0.5" stroke-width="2" stroke-linecap="round" stroke-linejoin="round"/>
<path d="M424.766 401.47C423.676 402.791 409.594 416.426 418.154 417.879C421.309 418.415 424.209 416.501 427.107 418.436C432.336 421.927 431.097 426.659 426.288 429.63C423.884 431.114 421.202 431.892 418.681 433.117C417.256 433.809 418.774 431.804 418.973 431.007" stroke="#00ADB5" stroke-opacity="0.5" stroke-width="2" stroke-linecap="round" stroke-linejoin="round"/>
<path d="M412.654 395.668C411.431 396.568 398.264 403.886 400.132 408.327C402.487 413.93 403.266 407.033 403.701 404.635" stroke="#00ADB5" stroke-opacity="0.5" stroke-width="2" stroke-linecap="round" stroke-linejoin="round"/>
<path d="M88.9711 223.133C91.3166 217.594 90.3559 212.768 90.3559 207.027C90.3559 205.911 90.1536 202.509 91.3254 201.9C93.1732 200.94 94.9001 200.299 97.0803 200.299C98.5298 200.299 99.9861 200.341 101.435 200.299C102.884 200.258 104.288 199.667 105.72 199.491C108.386 199.164 111.159 199.62 113.791 199.62C115.881 199.62 118.043 199.892 120.054 199.892C120.411 199.892 121.866 200.062 122.1 200.269C122.818 200.903 122.612 201.919 123.178 202.474" stroke="#00ADB5" stroke-opacity="0.5" stroke-linecap="round" stroke-linejoin="round"/>
<path d="M123.04 202.965C123.131 204.6 123.165 206.893 123.837 208.491C124.272 209.526 123.925 210.903 124.013 212.005C124.182 214.122 123.867 216.184 123.867 218.237C123.867 220.991 124.005 223.71 124.005 226.449C124.005 228.8 121.712 228.406 119.898 228.076C118.331 227.79 116.228 228.362 114.595 228.383C111.445 228.422 108.28 228.659 105.124 228.659C102.489 228.659 100.532 227.892 98.1051 226.971C96.8092 226.478 96.0259 226.587 94.6339 226.587C93.3155 226.587 92.2314 226.38 90.9098 226.794C90.1366 227.036 88.7519 226.827 88.3121 226.034C87.7848 225.084 88.8332 224.671 88.8332 223.893C88.8332 223.24 88.7512 221.371 88.9711 223.133" stroke="#00ADB5" stroke-opacity="0.5" stroke-linecap="round" stroke-linejoin="round"/>
<path d="M104.695 206.557C104.695 206.557 105.247 206.833 105.799 207.385C106.35 207.8 107.512 207.593 108.488 207.593C109.002 207.593 109.545 207.191 110.005 206.986C110.939 206.571 110.382 207.352 110.159 207.8C109.911 208.295 110.194 209.216 110.641 209.527C111.38 210.039 112.111 209.597 112.833 209.235C113.133 209.085 113.051 209.015 113.143 209.22C113.269 209.497 113.247 209.899 113.247 210.202C113.247 210.891 113.202 212.035 112.833 212.635C112.348 213.424 111.858 213.935 111.078 214.515C110.308 215.088 109.29 216.088 108.266 216.088C106.265 216.088 104.141 215.652 103.14 213.701C102.715 212.875 101.937 212.198 101.937 211.253C101.937 210.465 101.676 209.52 101.937 208.767C102.252 207.853 103.04 206.986 102.764 206.986C102.905 207.027 104.143 206.28 104.695 206.557Z" stroke="#00ADB5" stroke-opacity="0.5" stroke-linecap="round" stroke-linejoin="round"/>
<path d="M106.971 206.073C107.747 205.785 109.519 205.183 109.936 204.243C110.259 203.516 109.193 203.379 108.626 203.379C107.938 203.379 107.123 204.331 106.94 204.933C106.839 205.268 106.742 205.611 106.642 205.95C106.593 206.114 106.658 206.233 106.691 206.384C106.717 206.499 107.769 205.946 107.73 205.787" stroke="#00ADB5" stroke-opacity="0.5" stroke-linecap="round" stroke-linejoin="round"/>
<path d="M120.908 221.611L90.3784 222.282C87.143 222.353 84.5574 224.996 84.5574 228.233C84.5574 231.52 87.2222 234.184 90.5093 234.184H121.04C124.353 234.184 127.04 231.498 127.04 228.185V227.609C127.04 224.244 124.272 221.537 120.908 221.611Z" stroke="#00ADB5" stroke-opacity="0.5"/>
<path d="M97.0588 222.115C97.5169 222.827 97.9124 223.68 98.438 224.339C98.7024 224.67 98.66 224.602 99.1725 224.412C100.028 224.095 100.997 224.322 101.89 224.322C102.674 224.322 103.585 223.912 104.347 224.118C105.229 224.356 106.269 223.902 107.138 223.881C108.184 223.856 109.182 223.954 110.222 223.954C110.85 223.954 111.461 223.587 112.042 223.587C112.379 223.587 113.34 223.854 113.364 223.235C113.376 222.934 113.511 222.641 113.511 222.336C113.511 221.924 113.265 222.102 112.85 221.895" stroke="#00ADB5" stroke-opacity="0.5" stroke-linecap="round" stroke-linejoin="round"/>
<path d="M246.48 71.1145C247.046 70.3934 248.131 69.059 246.611 68.823C246.267 68.7697 245.945 68.5672 245.608 68.7204C244.568 69.1923 243.602 70.2312 243.602 71.4663C243.602 73.4392 245.763 73.8664 247.332 73.8409C249.98 73.7978 250.786 71.214 251.721 69.1211C252.666 67.0069 253.715 64.927 254.695 62.828C255.804 60.4529 257.623 58.5608 258.774 56.2075C259.267 55.1984 259.911 54.3097 260.547 53.3883C261.532 51.959 262.235 50.5171 262.94 48.9323C263.518 47.6321 264.159 46.4448 264.867 45.2141C265.154 44.7165 265.046 43.9541 265.594 44.4861C266.01 44.8901 266.672 45.1555 267.231 45.2581C269.678 45.7069 271.929 46.1819 274.449 45.9812C276.998 45.7783 279.545 45.4125 282.054 44.9259C282.907 44.7604 282.543 44.9596 282.141 45.478C281.459 46.3572 280.876 47.289 280.223 48.1799C279.371 49.3417 279.071 50.7409 278.566 52.0691C278.012 53.5292 277.352 54.9238 276.822 56.4078C275.799 59.2759 274.306 61.8915 272.458 64.2986C271.387 65.6937 270.065 68.1302 268.06 68.0315C264.957 67.8788 267.052 61.7619 268.534 60.5658C269.332 59.9219 270.205 60.6151 270.302 61.4795C270.436 62.6671 270.029 64.2946 268.878 64.8752C267.664 65.4877 266.733 65.4142 267.667 63.8345C268.233 62.8787 268.569 63.9306 268.801 63.4631" stroke="#00ADB5" stroke-opacity="0.5" stroke-width="2" stroke-linecap="round" stroke-linejoin="round"/>
<path d="M480.308 284.201C480.874 283.48 481.959 282.146 480.439 281.91C480.095 281.856 479.773 281.654 479.436 281.807C478.396 282.279 477.431 283.318 477.431 284.553C477.431 286.526 479.591 286.953 481.16 286.928C483.808 286.885 484.614 284.301 485.549 282.208C486.494 280.094 487.543 278.014 488.523 275.915C489.632 273.54 491.451 271.648 492.602 269.294C493.095 268.285 493.74 267.397 494.375 266.475C495.36 265.046 496.063 263.604 496.768 262.019C497.346 260.719 497.987 259.532 498.696 258.301C498.982 257.803 498.874 257.041 499.422 257.573C499.838 257.977 500.5 258.242 501.059 258.345C503.507 258.794 505.757 259.269 508.277 259.068C510.826 258.865 513.373 258.499 515.882 258.013C516.735 257.847 516.371 258.046 515.969 258.565C515.287 259.444 514.705 260.376 514.051 261.267C513.199 262.428 512.899 263.828 512.394 265.156C511.84 266.616 511.18 268.011 510.651 269.495C509.627 272.363 508.134 274.978 506.286 277.385C505.215 278.78 503.893 281.217 501.888 281.118C498.785 280.966 500.88 274.849 502.363 273.653C503.16 273.009 504.033 273.702 504.131 274.566C504.264 275.754 503.858 277.381 502.706 277.962C501.492 278.575 500.561 278.501 501.495 276.921C502.061 275.965 502.397 277.017 502.629 276.55" stroke="#00ADB5" stroke-opacity="0.5" stroke-width="2" stroke-linecap="round" stroke-linejoin="round"/>
<path d="M455.306 159.908C452.71 155.196 452.863 153.85 453.455 149.107C453.781 146.495 453.906 143.943 454.565 141.373C455.745 136.778 456.128 130.59 452.434 126.89C445.165 119.61 431.628 129.964 435.727 139.2C437.287 142.715 439.983 145.318 441.93 148.634C442.711 149.963 443.148 151.405 444.164 152.647C445.137 153.839 446.346 155.322 446.346 156.802C446.346 158.052 445.974 159.672 446.857 160.777C448.076 162.303 447.642 161.518 449.447 161.518C450.688 161.518 452.518 160.531 453.519 159.729C454.233 159.156 454.617 160.812 454.617 159.218C454.617 157.849 454.177 158.988 455.076 158.988" stroke="#00ADB5" stroke-opacity="0.5" stroke-linecap="round" stroke-linejoin="round"/>
<path d="M449.562 164.28C452.019 163.546 458.819 161.908 457.245 163.934C455.346 166.38 454.534 165.154 452.204 165.673C451.012 165.938 449.851 169.622 451.17 169.699C453.055 169.81 454.305 167.271 456.224 167.271C457.972 167.271 457.846 169.574 456.799 170.39C455.415 171.467 453.824 170.309 452.893 171.987C451.422 174.64 455.441 174.208 456.582 173.585C457.731 172.957 458.824 171.977 459.67 171.412" stroke="#00ADB5" stroke-opacity="0.5" stroke-linecap="round" stroke-linejoin="round"/>
<path d="M455.306 159.16C455.275 159.36 455.242 160.713 454.703 160.713C454.412 160.713 454.279 160.537 454.014 160.684C453.702 160.858 453.409 161.267 453.111 161.506C452.848 161.716 452.067 161.69 451.917 161.953C451.672 162.382 451.175 162.617 450.711 162.669C450.109 162.736 449.887 163.038 449.246 162.896C449.051 162.852 449.031 162.726 448.848 162.726C448.565 162.726 448.442 162.862 448.229 162.624C447.992 162.361 447.606 162.238 447.492 161.838C447.337 161.295 446.768 161.009 447.61 161.346" stroke="#00ADB5" stroke-opacity="0.5" stroke-linecap="round" stroke-linejoin="round"/>
<path d="M444.221 136.382C445.249 136.387 446.098 136.453 446.448 137.545C446.686 138.287 446.691 139.017 446.691 139.788C446.691 140.538 446.231 141.14 446.231 141.846C446.231 142.779 446.976 142.626 447.606 142.91C448.202 143.179 448.633 143.403 448.956 144.003C449.276 144.598 449.034 145.747 448.991 146.394C448.954 146.95 448.69 148.132 449.074 148.602C449.283 148.857 450.423 149.252 449.677 148.691" stroke="#00ADB5" stroke-opacity="0.5" stroke-linecap="round" stroke-linejoin="round"/>
<path d="M435.548 146.793C434.725 147.34 433.887 147.799 432.967 148.145C432.581 148.29 432.073 148.548 432.16 147.943" stroke="#00ADB5" stroke-opacity="0.5" stroke-linecap="round" stroke-linejoin="round"/>
<path d="M432.562 138.855C431.104 139.207 429.655 139.603 428.21 139.993C427.969 140.057 428.521 139.449 428.542 139.43" stroke="#00ADB5" stroke-opacity="0.5" stroke-linecap="round" stroke-linejoin="round"/>
<path d="M432.16 131.32C430.65 131.1 429.144 130.827 427.642 130.559C426.95 130.436 426.657 130.526 427.048 129.939" stroke="#00ADB5" stroke-opacity="0.5" stroke-linecap="round" stroke-linejoin="round"/>
<path d="M440.315 123.324C439.122 123.114 438.088 122.912 437.01 122.372C436.505 122.119 436.019 121.815 435.491 121.611C434.863 121.369 434.85 121.443 435.548 121.023" stroke="#00ADB5" stroke-opacity="0.5" stroke-linecap="round" stroke-linejoin="round"/>
<path d="M450.711 118.147C450.885 119.368 450.828 120.099 450.335 121.205C450.069 121.802 449.844 122.555 449.713 123.199C449.667 123.421 449.642 123.547 449.492 123.714C449.436 123.776 449.642 123.035 449.677 122.921" stroke="#00ADB5" stroke-opacity="0.5" stroke-linecap="round" stroke-linejoin="round"/>
<path d="M459.498 123.036C459.117 124.308 458.574 125.527 458.248 126.801C458.083 127.445 458.186 127.484 458.465 126.833" stroke="#00ADB5" stroke-opacity="0.5" stroke-linecap="round" stroke-linejoin="round"/>
<path d="M463.174 132.182C461.869 133.313 460.799 134.718 459.786 136.107C459.659 136.281 459.512 136.343 459.371 136.484C459.051 136.804 459.603 136.08 459.671 135.979" stroke="#00ADB5" stroke-opacity="0.5" stroke-linecap="round" stroke-linejoin="round"/>
<path d="M170.734 247.566C172.644 256.181 174.794 264.816 176.057 273.561C176.763 278.446 175.213 271.397 175.021 270.4C174.604 268.242 174.126 266.331 174.126 264.125C174.126 259.685 174.007 255.196 173.678 250.75C173.448 247.639 169.632 238.374 174.455 246.104C179.374 253.985 182.846 262.699 186.185 271.296C186.645 272.481 187.282 273.604 187.786 274.74C188.062 275.361 182.899 270.308 180.909 269.221" stroke="#00ADB5" stroke-opacity="0.5" stroke-width="2" stroke-linecap="round" stroke-linejoin="round"/>
<path d="M167.766 266.673C173.278 264.47 185.431 260.315 188.964 254.124C190.444 251.53 190.156 252.729 185.996 253.51" stroke="#00ADB5" stroke-opacity="0.5" stroke-width="2" stroke-linecap="round" stroke-linejoin="round"/>
<path d="M184.301 237.8C188.554 246.233 191.635 255.213 192.803 264.573C192.911 265.441 193.112 266.393 193.722 267.003C193.835 267.116 191.682 263.08 191.084 262.002" stroke="#00ADB5" stroke-opacity="0.5" stroke-width="2" stroke-linecap="round" stroke-linejoin="round"/>
<path d="M184.301 237.376C187.599 239.355 199.713 246.663 191.814 251.317C191.121 251.725 190.308 252.102 189.812 252.756C188.762 254.139 188.636 254.545 189.388 252.661" stroke="#00ADB5" stroke-opacity="0.5" stroke-width="2" stroke-linecap="round" stroke-linejoin="round"/>
<path d="M195.323 233.13C196.728 242.663 199.139 253.138 199.139 262.851C199.139 264.996 198.781 261.024 198.291 259.879" stroke="#00ADB5" stroke-opacity="0.5" stroke-width="2" stroke-linecap="round" stroke-linejoin="round"/>
<path d="M205.074 250.114C207.402 257.063 208.598 261.157 201.777 263.182C199.446 263.873 202.262 260.483 202.86 260.068C204.901 258.653 206.933 254.098 204.65 251.812C203.742 250.902 201.568 252.051 200.929 250.963C199.986 249.358 202.098 246.321 203.378 245.537C207.059 243.284 206.596 246.459 205.074 245.443" stroke="#00ADB5" stroke-opacity="0.5" stroke-width="2" stroke-linecap="round" stroke-linejoin="round"/>
<path d="M332.425 121.169C333.831 128.575 339.616 150.199 336.25 143.457C335.888 142.73 335.585 142.115 335.555 141.29C335.442 138.241 335.215 135.053 334.164 132.158C333.285 129.737 333.469 127.228 333.469 124.652C333.469 124.136 332.593 120.075 332.677 120.047C333.562 119.752 337.213 124.195 337.873 124.961C341.211 128.835 344.586 133.287 346.971 137.827C348.199 140.163 348.569 141.001 345.638 141.367" stroke="#00ADB5" stroke-opacity="0.5" stroke-width="2" stroke-linecap="round" stroke-linejoin="round"/>
<path d="M332.078 136.144C335.341 134.486 338.449 133.161 341.814 131.965" stroke="#00ADB5" stroke-opacity="0.5" stroke-width="2" stroke-linecap="round" stroke-linejoin="round"/>
<path d="M341.466 121.518C344.807 126.53 347.989 131.864 351.878 136.492C352.433 137.152 353.597 138.351 353.597 136.802C353.597 134.687 352.428 132.502 351.897 130.495C351.049 127.284 350.259 124.058 349.541 120.821C348.847 117.697 349.336 118.863 350.507 121.208C352.447 125.094 354.489 128.633 357.19 132.081C359.01 134.404 359.199 133.11 359.199 131.075C359.199 127.378 357.397 124.338 356.07 121.015C354.652 117.465 354.747 112.619 353.134 109.387C352.506 108.13 352.419 112.114 352.245 113.508" stroke="#00ADB5" stroke-opacity="0.5" stroke-width="2" stroke-linecap="round" stroke-linejoin="round"/>
<path d="M360.242 108.981C360.331 109.39 361.626 119.529 363.913 118.384C364.915 117.882 365.16 116.346 366.192 115.83C367.864 114.993 369.671 116.475 370.326 117.919C372.059 121.737 370.064 126.16 366.926 128.483C362.579 131.701 364.067 125.907 364.067 124.304" stroke="#00ADB5" stroke-opacity="0.5" stroke-width="2" stroke-linecap="round" stroke-linejoin="round"/>
<path d="M362.329 108.285C361.703 109.997 360.565 117.948 360.223 114.863C360.012 112.958 360.387 111.51 360.59 109.678C361.072 105.332 364.393 108.828 363.024 106.543" stroke="#00ADB5" stroke-opacity="0.5" stroke-width="2" stroke-linecap="round" stroke-linejoin="round"/>
<path d="M339.14 337.021C339.024 336.808 334.008 328.156 334.442 327.908C335.044 327.563 336.167 327.898 336.876 327.632C338.969 326.846 340.655 325.223 342.378 323.881C344.19 322.469 346.672 333.544 347.224 335.877C347.891 338.699 349.629 342.45 346.377 344.079C343.446 345.547 339.589 345.104 336.389 345.033C331.168 344.916 327.56 336.333 326.951 332.062C326.507 328.952 322.207 318.968 326.824 316.972C328.06 316.437 330.16 316.802 331.501 316.802C333.419 316.802 335.094 315.658 337.045 315.658C340.149 315.658 341.088 319.541 338.378 315.276" stroke="#00ADB5" stroke-opacity="0.5" stroke-width="2" stroke-linecap="round" stroke-linejoin="round"/>
<path d="M347.901 318.328C348.442 320.302 350.183 331.267 354.757 328.459C355.628 327.924 356.261 326.629 356.577 325.704C357.42 323.235 357.597 321.172 355.709 319.282C354.295 317.865 351.564 314.974 349.509 314.895C344.413 314.698 348.909 320.415 348.282 319.473" stroke="#00ADB5" stroke-opacity="0.5" stroke-width="2" stroke-linecap="round" stroke-linejoin="round"/>
<path d="M348.663 300.779C352.425 306.737 358.102 313.289 360.386 320.151C360.677 321.026 360.688 321.621 361.233 322.44C362.055 323.675 362.444 325.468 363.222 323.584C364.349 320.857 366.917 318.435 368.936 316.336C371.426 313.745 371.767 314.513 367.327 314.513" stroke="#00ADB5" stroke-opacity="0.5" stroke-width="2" stroke-linecap="round" stroke-linejoin="round"/>
<path d="M374.946 298.872C374.473 299.941 367.297 314.163 374.226 310.931C375.605 310.288 377.011 309.288 376.829 307.646C376.653 306.064 375.334 304.82 374.649 303.45C374.263 302.675 372.717 298.944 373.253 300.016C374.844 303.203 376.98 308.878 379.347 311.249C382.105 314.011 383.757 311.108 381.04 309.554" stroke="#00ADB5" stroke-opacity="0.5" stroke-width="2" stroke-linecap="round" stroke-linejoin="round"/>
<path d="M379.136 300.398C389.738 317.242 376.322 298.342 379.411 295.036C382.4 291.836 385.931 297.981 387.05 299.932C388.999 303.33 390.918 312.146 387.897 303.068" stroke="#00ADB5" stroke-opacity="0.5" stroke-width="2" stroke-linecap="round" stroke-linejoin="round"/>
<path d="M392.468 285.901C392.288 286.537 386.601 302.565 390.859 301.076C392.669 300.443 394.486 299.011 395.451 297.367C396.565 295.47 397.084 292.869 396.277 290.776C395.726 289.349 395.131 287.824 394.372 286.495C392.569 283.335 397.428 293.099 398.88 296.435C401.006 301.319 406.128 318.444 394.055 315.043C388.789 313.56 393.748 305.357 393.229 305.357" stroke="#00ADB5" stroke-opacity="0.5" stroke-width="2" stroke-linecap="round" stroke-linejoin="round"/>
<path d="M242.549 207.08C244.442 206.559 246.056 206.034 247.387 204.535C247.912 203.943 247.983 203.189 248.251 202.472C248.6 201.541 248.166 200.352 247.868 199.458C247.631 198.744 248.93 198.343 249.394 198.313C250.191 198.262 250.801 198.77 251.567 198.815C252.488 198.869 253.47 199.164 254.109 199.884C254.542 200.372 255.123 200.488 255.602 200.911C256.057 201.313 256.416 202.014 256.745 202.529C257.697 204.018 257.966 205.755 258.243 207.459C258.375 208.276 258.456 209.165 258.318 209.99C258.154 210.975 258.329 211.922 257.94 212.867C257.672 213.52 257.243 214.384 256.632 214.769C256.005 215.164 255.422 215.307 255.262 216.127C254.927 217.84 255.786 219.518 255.455 221.246C255.162 222.781 253.136 223.016 251.884 223.262C251.019 223.431 249.448 223.696 248.615 223.243C247.063 222.398 245.939 221.342 244.788 219.997C243.769 218.805 243.383 217.063 243.248 215.54C243.111 213.985 243.109 212.296 243.144 210.724C243.167 209.68 243.471 208.632 243.569 207.591C243.65 206.74 243.92 206.672 243.484 207.762" stroke="#00ADB5" stroke-opacity="0.5" stroke-linecap="round" stroke-linejoin="round"/>
<path d="M253.519 199.33C254.158 197.679 254.861 196.028 255.352 194.325C255.572 193.559 255.625 192.749 255.9 192.002C256.219 191.133 256.377 190.151 256.514 189.243C256.612 188.592 256.66 187.439 257.255 187.029C257.69 186.73 257.938 186.045 258.403 185.685C259.001 185.223 259.851 184.793 260.274 184.176C260.69 183.57 261.134 182.317 260.784 181.616C260.59 181.227 260.617 180.807 260.425 180.424C260.176 179.925 259.952 179.521 259.764 178.981C259.599 178.508 259.08 177.566 259.684 177.23C261.159 176.409 261.262 177.702 261.72 178.882C261.956 179.491 261.992 180.235 262.211 180.869C262.361 181.302 262.627 180.989 262.83 181.238C263.136 181.613 263.151 182.082 263.383 182.487C263.729 183.094 263.322 184.325 263.146 184.919C262.821 186.019 262.486 187.013 262.003 188.07C260.76 190.79 258.734 193.08 257.345 195.716C256.816 196.719 256.393 197.729 256.136 198.838C255.989 199.469 255.559 200.069 255.559 200.736C255.559 201.344 255.409 201.655 255.729 200.693" stroke="#00ADB5" stroke-opacity="0.5" stroke-linecap="round" stroke-linejoin="round"/>
<path d="M260.151 178.806C259.068 178.972 257.887 179.036 256.92 179.52C256.787 179.587 256.993 179.413 257.09 179.402C258.386 179.249 259.802 178.091 260.983 177.528C261.861 177.11 263.062 176.166 264.063 176.166C264.353 176.166 263.099 176.975 262.957 177.103" stroke="#00ADB5" stroke-opacity="0.5" stroke-linecap="round" stroke-linejoin="round"/>
<path d="M259.046 180.68C260.251 179.978 262.35 179.217 263.231 178.039C263.317 177.925 263.38 177.77 263.505 177.699C263.943 177.448 263.169 177.727 263.042 177.784" stroke="#00ADB5" stroke-opacity="0.5" stroke-linecap="round" stroke-linejoin="round"/>
<path d="M259.896 181.787C261.342 181.232 263.986 180.739 264.781 179.147C264.896 178.916 264.641 178.976 264.488 178.976" stroke="#00ADB5" stroke-opacity="0.5" stroke-linecap="round" stroke-linejoin="round"/>
<path d="M261.427 181.616C261.334 183.569 261.354 185.555 260.241 187.228C259.698 188.044 259.322 188.586 259.131 189.541C258.927 190.562 258.703 191.415 258.238 192.347C257.779 193.267 257.24 194.019 256.788 194.902C256.553 195.359 255.976 195.801 256.088 196.35C256.145 196.627 256.008 196.876 255.918 197.135C255.653 197.904 255.156 198.582 254.69 199.245C254.374 199.696 254.378 200.505 254.794 199.671" stroke="#00ADB5" stroke-opacity="0.5" stroke-linecap="round" stroke-linejoin="round"/>
<path d="M254.539 197.372C255.306 197.538 256.473 198.053 257.26 198.053C257.274 198.053 256.591 197.227 256.495 197.116" stroke="#00ADB5" stroke-opacity="0.5" stroke-linecap="round" stroke-linejoin="round"/>
<path d="M255.049 193.88C256.134 194.344 257.221 194.804 258.299 195.285C258.552 195.398 258.537 195.415 258.45 195.328C258.264 195.141 258.105 194.938 257.94 194.732" stroke="#00ADB5" stroke-opacity="0.5" stroke-linecap="round" stroke-linejoin="round"/>
<path d="M256.07 191.58C257.377 191.988 258.682 192.426 260.005 192.782C260.153 192.822 260.36 192.902 260.217 192.754C259.932 192.459 259.604 192.197 259.301 191.921" stroke="#00ADB5" stroke-opacity="0.5" stroke-linecap="round" stroke-linejoin="round"/>
<path d="M256.75 188.685C258.238 189.413 259.72 190.199 261.247 190.847C261.498 190.954 261.582 191.032 261.531 190.833C261.461 190.563 261.357 190.308 261.257 190.048" stroke="#00ADB5" stroke-opacity="0.5" stroke-linecap="round" stroke-linejoin="round"/>
<path d="M258.62 186.641C258.756 186.706 262.873 188.943 262.532 188.089" stroke="#00ADB5" stroke-opacity="0.5" stroke-linecap="round" stroke-linejoin="round"/>
<path d="M259.471 185.278C260.713 185.571 261.969 185.837 263.212 186.045" stroke="#00ADB5" stroke-opacity="0.5" stroke-linecap="round" stroke-linejoin="round"/>
<path d="M260.832 183.916C261.399 183.943 261.965 183.971 262.532 184.001" stroke="#00ADB5" stroke-opacity="0.5" stroke-linecap="round" stroke-linejoin="round"/>
<path d="M249.607 209.465C249.016 209.7 245.377 210.607 245.355 211.613C245.347 212.006 245.355 212.4 245.402 212.791C245.549 214.004 246.392 214.639 247.424 215.218C248.737 215.955 250.151 215.978 251.582 215.559C252.942 215.161 253.826 213.654 253.282 212.361C253.169 212.092 253.56 212.038 253.306 211.727C253.059 211.424 252.896 211.6 252.498 211.679" stroke="#00ADB5" stroke-opacity="0.5" stroke-linecap="round" stroke-linejoin="round"/>
<path d="M247.821 212.616C248.498 210.902 249.342 209.189 249.735 207.378C249.837 206.905 249.964 206.506 250.221 206.077C250.763 205.172 251.241 204.206 251.563 203.201C251.868 202.246 251.888 201.305 252.29 200.371C252.434 200.038 253.291 199.04 252.923 199.501" stroke="#00ADB5" stroke-opacity="0.5" stroke-linecap="round" stroke-linejoin="round"/>
<path d="M254.539 200.352C254.223 202.325 253.749 204.213 253.415 206.163C253.229 207.243 252.923 208.147 252.923 209.285C252.923 210.099 253.213 210.778 253.027 211.594C252.813 212.534 252.62 212.071 252.243 211.424" stroke="#00ADB5" stroke-opacity="0.5" stroke-linecap="round" stroke-linejoin="round"/>
<path d="M253.689 200.352C253.097 201.584 251.818 203.609 251.818 205.164C251.818 206.049 251.875 206.987 251.813 207.885C251.74 208.952 250.908 210.335 250.41 211.253C250.245 211.558 250.03 211.794 249.928 212.124C249.801 212.537 249.892 212.562 249.607 212.105" stroke="#00ADB5" stroke-opacity="0.5" stroke-linecap="round" stroke-linejoin="round"/>
<path d="M247.566 210.828C249.014 211.865 251.571 213.982 253.349 212.152C253.626 211.867 254.026 211.258 254.18 210.894C254.39 210.396 253.71 210.819 253.263 210.913" stroke="#00ADB5" stroke-opacity="0.5" stroke-linecap="round" stroke-linejoin="round"/>
<path d="M249.267 209.294C250.093 209.268 251.762 209.491 252.564 209.077C252.591 209.063 252.503 209.087 252.479 209.105C252.4 209.169 252.236 209.065 252.158 209.039" stroke="#00ADB5" stroke-opacity="0.5" stroke-linecap="round" stroke-linejoin="round"/>
<path d="M250.202 206.144C250.808 206.304 253.001 207.238 253.093 206.229" stroke="#00ADB5" stroke-opacity="0.5" stroke-linecap="round" stroke-linejoin="round"/>
<path d="M251.223 203.589C251.974 204.08 255.023 206.355 254.539 203.929" stroke="#00ADB5" stroke-opacity="0.5" stroke-linecap="round" stroke-linejoin="round"/>
<path d="M252.073 202.396C252.838 202.595 253.603 202.793 254.369 202.992" stroke="#00ADB5" stroke-opacity="0.5" stroke-linecap="round" stroke-linejoin="round"/>
<path d="M255.814 202.396C256.761 203.289 258.65 205.367 258.706 206.929C258.751 208.203 258.706 209.435 258.706 210.724C258.706 211.661 258.884 212.661 258.791 213.553C258.668 214.723 256.874 214.738 257.303 216.113C257.446 216.572 257.321 216.843 257.723 217.172C258.07 217.457 258.322 217.786 258.45 218.237C258.751 219.289 258.153 220.239 257.43 220.962C256.978 221.415 256.391 222.326 255.857 222.623C255.593 222.77 255.054 222.665 254.751 222.665C254.471 222.665 253.904 222.848 253.651 222.964C253.278 223.133 252.802 222.833 252.328 223.006" stroke="#00ADB5" stroke-opacity="0.5" stroke-linecap="round" stroke-linejoin="round"/>
<path d="M242.549 207.336C242.892 208.476 243.147 209.425 243.721 210.402C243.956 210.803 243.924 211.168 243.82 211.637C243.699 212.182 243.301 213.461 243.612 214.021C244.09 214.882 244.08 215.794 244.08 216.747C244.08 217.665 245.513 218.064 245.984 218.535C246.682 219.234 246.379 220.128 247.528 220.432C247.78 220.499 248.173 220.503 248.369 220.664C248.518 220.786 248.693 221.092 248.889 221.128C249.294 221.202 249.836 221.121 250.202 221.284C250.508 221.42 250.731 221.616 251.01 221.771C251.317 221.942 251.738 221.75 252.073 221.918C253.216 222.491 252.706 221.946 251.903 221.303" stroke="#00ADB5" stroke-opacity="0.5" stroke-linecap="round" stroke-linejoin="round"/>
<path d="M157.926 164.562C155.654 167.474 145.898 179.126 154.211 181.763C156.791 182.581 160.148 180.7 162.929 180.971C166.861 181.356 169.072 184.703 170.039 188.18C171.153 192.183 165.007 199.301 167.962 201.454C173.022 205.14 180.31 198.907 184.492 203.857C186.862 206.662 184.37 210.738 185.838 204.12" stroke="#00ADB5" stroke-opacity="0.5" stroke-linecap="round" stroke-linejoin="round"/>
<path d="M272.041 119.202C274.231 122.108 279.443 128.655 281.404 132.388C283.072 135.566 280.969 135.438 279.18 134.176C277.04 132.666 277.341 129.455 277.951 127.231C280.013 119.723 293.356 112.821 294.862 124.359C295.391 128.412 291.774 135.227 286.846 133.619C280.339 131.496 280.754 121.551 285.675 117.854C290.709 114.073 298.958 118.418 298.958 124.594C298.958 131.45 290.821 133.573 287.665 127.524C284.796 122.026 289.879 116.275 295.33 115.451C297.335 115.149 302.514 117.468 298.9 118.675" stroke="#00ADB5" stroke-opacity="0.5" stroke-linecap="round" stroke-linejoin="round"/>
<path d="M382.108 171.419C378.698 174.812 367.921 182.725 376.988 185.806C382.264 187.599 387.148 184.66 390.418 180.649C394.025 176.223 394.637 169.224 388.896 166.35C384.431 164.114 380.584 160.523 376.842 166.144" stroke="#00ADB5" stroke-opacity="0.5" stroke-linecap="round" stroke-linejoin="round"/>
<path d="M498.496 217.834C491.984 221.719 482.096 226.411 492.176 230.082C493.726 230.646 494.734 230.279 496.097 229.32C501.136 225.774 501.432 224.353 501.129 218.889C500.929 215.27 495.645 216.097 493.23 217.306C489.667 219.09 487.183 222.66 485.74 226.273C483.798 231.134 493.835 230.837 495.219 224.983C496.087 221.314 491.896 216.102 489.017 220.588C485.201 226.532 491.023 231.848 494.693 225.628C498.207 219.671 489.995 217.214 487.788 224.163C484.885 233.299 502.139 223.379 495.863 220.237C492.122 218.363 485.805 230.259 492.703 227.298C501.078 223.704 491.708 218.406 491.708 226.8C491.708 233.612 502.958 223.726 495.629 221.057C493.953 220.447 492.299 225.81 493.493 227.005C495.569 229.085 499.178 223.699 498.993 221.76C498.202 213.437 490.066 234.598 499.754 224.896C501.967 222.679 501.876 218.673 498.203 221.028C496.036 222.417 494.665 228.314 498.759 226.947C502.692 225.634 502.691 218.339 498.467 220.031C495.889 221.064 494.955 224.72 492.176 224.163" stroke="#00ADB5" stroke-opacity="0.5" stroke-linecap="round" stroke-linejoin="round"/>
<path d="M441.619 272.16C440.532 273.362 423.179 294.806 431.905 283.881C433.901 281.383 435.734 278.925 438.459 277.171C440.138 276.09 441.756 275.422 443.199 273.977C444.775 272.398 442.54 272.502 442.175 275.794C441.857 278.66 442.1 291.177 441.619 291.148C438.366 290.957 436.233 287.75 433.222 286.694C431.609 286.129 426.826 286.943 428.16 285.874C431.422 283.26 441.413 275.766 438.459 278.724C436.221 280.965 431.622 289.388 433.193 286.636C434.309 284.679 437.328 278.303 436.879 279.369C435.953 281.565 434.342 285.327 434.48 287.749C434.611 290.048 439.17 284.392 439.454 283.823C441.567 279.59 437.195 289.109 438.752 286.841C440.154 284.798 444.894 279.605 441.502 284.702C440.759 285.817 445.016 280.671 444.252 281.771C444.03 282.091 442.101 285.333 443.228 284.204C447.266 280.16 441.316 284.364 440.565 283.237" stroke="#00ADB5" stroke-opacity="0.5" stroke-linecap="round" stroke-linejoin="round"/>
<path d="M406.334 359.716C408.177 357.086 418.712 345.487 410.05 344.977C408.586 344.89 405.567 344.415 404.344 345.416C401.437 347.798 402.698 354.224 406.627 354.94C411.837 355.888 416.719 348.753 411.074 346.002C405.176 343.129 391.254 354.671 397.264 359.423C409.097 368.779 419.797 341.59 404.491 345.504C390.607 349.054 402.838 363.377 409.143 354.148C415.893 344.268 395.079 344.183 398.756 355.233C400.57 360.682 406.523 358.052 407.592 353.65C409.159 347.197 402.751 349.862 402.648 354.324C402.536 359.107 409.894 350.453 405.486 350.837C402.3 351.115 401.985 355.496 399.488 355.496" stroke="#00ADB5" stroke-opacity="0.5" stroke-linecap="round" stroke-linejoin="round"/>
<path d="M196.732 310.136C197.795 314.969 199.891 329.59 199.891 324.641C199.891 321.224 197.286 318.036 196.761 314.619C196.577 313.425 196.956 309.894 195.942 309.081C195.248 308.525 201.806 313.638 203.549 314.619C206.729 316.411 209.009 319.758 211.77 316.202C213.096 314.495 216.996 314.259 217.534 313.828C221.433 310.704 221.076 306.041 221.981 301.961C222.304 300.506 221.484 306.929 221.484 308.818C221.484 311.233 221.919 314.431 222.566 316.7C223.485 319.922 223.117 310.83 222.244 309.081C220.826 306.241 220.957 303.72 220.957 300.642C220.957 299.427 229.761 314.658 228.213 315.821C227.566 316.307 218.945 313.925 216.334 314.766C214.085 315.49 212.031 316.335 209.898 317.403C209.314 317.695 208.352 318.759 208.727 318.458C210.064 317.387 214.155 314.458 212.531 315C210.299 315.745 208.108 317.908 206.094 319.103C202.298 321.355 201.07 321.041 199.482 324.905C199.253 325.461 202.086 325.39 202.642 325.549C206.627 326.69 209.132 323.581 212.648 322.15C217.186 320.304 222.403 316.512 227.277 315.938C230.955 315.505 225.362 314.213 225.17 313.828" stroke="#00ADB5" stroke-opacity="0.5" stroke-linecap="round" stroke-linejoin="round"/>
<path d="M397.908 107.071C407.833 103.884 423.908 100.22 432.783 92.9472C434.393 91.6275 436.887 90.3626 436.323 87.8192C434.203 78.2646 429.59 76.0238 420.495 77.036C415.45 77.5974 410.607 82.258 405.924 84.1564C401.103 86.1109 396.279 88.6788 391.881 91.482C387.429 94.3192 390.008 95.7246 390.008 100.624C390.008 103.319 391.615 107.071 394.484 107.071C395.792 107.071 399.541 106.016 395.83 106.016C392.918 106.016 388.397 106.458 385.795 105.078C383.808 104.025 387.73 101.95 388.662 101.826C391.991 101.381 384.848 104.642 384.127 104.873C382.645 105.348 389.476 100.164 385.678 101.386C381.561 102.712 387.671 99.1574 388.955 98.5146C390.404 97.789 389.14 98.9378 389.481 98.3388C390.028 97.3804 393.193 93.8593 390.33 96.7272C389.371 97.6873 392.494 95.0896 393.548 94.2365C395.535 92.6296 393.014 95.0675 392.524 95.4672C390.265 97.3087 389.736 95.8227 387.901 96.6393C387.135 96.9806 385.268 98.1126 385.268 96.7858C385.268 94.4965 393.333 93.4537 394.806 93.3867C403.827 92.976 410.14 88.9908 418.447 86.9109C422.444 85.91 426.813 84.4684 430.559 82.6913C433.338 81.3733 438.903 77.2468 441.853 78.0909C443.012 78.4225 425.129 88.8437 430.267 85.4457C434.517 82.6349 439.39 80.6612 433.017 85.9439C427.911 90.176 436.893 85.2465 437.61 85.5337C438.898 86.0496 429.681 91.3221 436.703 88.083C439.389 86.8441 441.619 86.7829 441.619 83.8634C441.619 79.9004 442.701 75.2032 437.669 77.036C431.862 79.1508 427.201 83.6712 421.197 85.4457C417.058 86.669 413.025 88.2138 408.967 89.6653C404.258 91.3495 395.735 93.2328 392.378 97.3425C390.589 99.5327 387.402 108.068 393.987 104.375C400.028 100.987 400.989 94.1323 404.227 88.7276C405.836 86.0432 401.425 94.3975 400.775 97.4597C400.028 100.982 403.337 105.035 407.124 104.375C411.278 103.652 415.647 97.9064 417.13 94.4123C424.257 77.6181 411.33 93.9068 414.994 97.5769C418.883 101.472 424.809 91.154 425.585 88.6104C426.52 85.5457 427.07 81.7679 428.189 78.8527C429.641 75.0718 420.371 79.3301 419.5 79.7611C414.678 82.1478 411.311 85.3315 408.031 89.5481C406.843 91.0743 402.077 98.2584 405.339 99.8918C409.711 102.081 415.077 95.2767 415.199 91.7458C415.611 79.7845 405.777 85.9147 399.839 90.603C396.169 93.4999 399.357 99.2899 400.014 98.6318" stroke="#00ADB5" stroke-opacity="0.5" stroke-linecap="round" stroke-linejoin="round"/>
<path d="M264.668 392.945C264.439 393.128 255.774 400.613 255.774 398.483C255.774 397.235 256.733 395.899 257.588 395.084C259.278 393.472 265.954 392.231 264.346 396.168C263.268 398.809 258.86 402.7 257.617 397.721C257.101 395.653 260.644 391.504 262.796 393.267C265.168 395.211 260.068 397.688 258.465 396.813C255.604 395.249 259.04 389.683 261.801 390.835C264.688 392.04 260.717 395.333 259.402 395.992C256.326 397.532 256.756 395.042 255.189 393.472" stroke="#00ADB5" stroke-opacity="0.5" stroke-linecap="round" stroke-linejoin="round"/>
<path d="M121.949 392.417C124.985 397.427 130.767 402.626 124.875 407.186C123.355 408.362 114.39 413.064 114.927 407.596C115.581 400.937 125.49 400.789 126.103 394.82C126.71 388.918 112.635 391.141 109.427 387.143C107.417 384.638 105.796 379.087 106.267 375.891C106.45 374.646 109.602 372.23 109.28 374.484C108.692 378.611 95.4067 389.181 103.282 392.652C108.563 394.979 109.925 389.087 113.815 387.67C121.828 384.752 109.836 406.396 109.836 400.856" stroke="#00ADB5" stroke-opacity="0.5" stroke-linecap="round" stroke-linejoin="round"/>
<path d="M380.002 460.985C377.563 466.765 372.629 484.578 372.629 478.302C372.629 477.324 372.818 476.551 373.156 475.636C374.741 471.339 376.577 467.34 379.241 463.563C380.696 461.502 382.429 455.466 384.508 460.047C385.478 462.184 388.253 468.135 387.082 470.479C385.614 473.421 381.054 475.109 378.013 475.226C377.22 475.256 368.913 476.349 371.605 473.878C374.769 470.973 377.83 462.139 382.606 461.541C383.343 461.449 384.884 461.943 385.532 462.303C386.673 462.938 385.283 464.085 384.742 464.97C384.093 466.031 378.959 473.204 378.949 472.882C378.803 468.075 383.727 461.097 386.38 457.468C387.332 456.167 382.269 464.999 381.114 466.992C380.22 468.534 381.386 471.811 377.369 471.006" stroke="#00ADB5" stroke-opacity="0.5" stroke-linecap="round" stroke-linejoin="round"/>
<path d="M216.744 36.921C214.394 46.1272 212.301 54.8987 211.448 64.2894C211.363 65.2287 210.77 65.836 211.36 66.575C212.239 67.6747 214.562 60.6821 215.457 58.8099C218.29 52.8755 221.484 50.5335 221.484 43.2503C221.484 42.1994 221.484 36.1507 221.484 40.1443C221.484 43.5348 222.125 46.8858 221.893 50.2829C221.718 52.8505 219.257 59.7799 221.074 57.9601C223.879 55.1512 221.632 41.0674 217.241 40.701C211.248 40.2008 208.359 53.2101 207.674 57.2568C206.877 61.9652 210.192 63.9363 213.847 60.275C218.837 55.2775 219.919 45.0033 215.632 39.148C209.742 31.1038 205.877 45.6183 205.392 49.1694C204.295 57.2022 208.775 59.7763 214.081 54.0629C216.033 51.9615 219.968 48.3279 219.143 45.0671C218.045 40.7296 211.644 44.9415 210.366 46.8252C208.553 49.4963 208.577 56.1495 211.507 58.048C214.242 59.8206 216.904 52.4756 216.598 50.6345C215.298 42.8263 200.602 55.2215 207.908 59.6596C214.267 63.5223 218.482 46.2413 210.658 48.3782C208.48 48.9733 203.305 54.854 207.791 54.854" stroke="#00ADB5" stroke-opacity="0.5" stroke-linecap="round" stroke-linejoin="round"/>
<path d="M77.1844 187.242C74.8179 193.957 73.1142 198.244 67.1198 202.01C65.6147 202.956 63.6257 204.629 63.3163 206.523C62.6552 210.569 69.0278 215.028 72.6495 213.819C80.2807 211.272 68.733 203.707 67.5001 201.512C65.3535 197.69 73.1119 190.825 76.687 192.839C79.4699 194.407 80.7036 199.87 79.0569 202.538C76.6581 206.424 71.5021 206.578 67.4709 205.966C64.2604 205.479 57.8296 206.141 59.7176 210.918C62.08 216.896 73.2299 213.763 74.9023 208.691C76.5306 203.754 67.7155 201.893 69.6067 197.263C70.9057 194.083 75.0073 190.114 78.6473 190.114C83.0074 190.114 78.6532 198.27 78.0036 199.549C75.1353 205.195 70.7467 205.759 65.1888 207.285C54.7281 210.158 65.9973 210.562 66.6516 207.285" stroke="#00ADB5" stroke-opacity="0.5" stroke-linecap="round" stroke-linejoin="round"/>
<path d="M64.545 259.502C63.427 263.718 60.1217 270.913 60.4489 275.501C60.6022 277.65 61.1885 271.253 61.4436 269.113C61.9297 265.036 62.4858 260.431 64.662 256.864C65.0482 256.231 73.9802 267.398 74.7852 269.23C76.9395 274.134 74.2423 273.2 70.8646 274.798C68.9874 275.685 56.1772 280.214 56.1772 279.017C56.1772 277.763 58.5923 275.214 59.1615 274.153C60.9434 270.833 62.8551 266.664 63.6087 262.959C65.2182 255.046 64.0183 271.331 64.0183 272.571C64.0183 273.323 64.3104 277.728 62.5554 277.728C60.359 277.728 64.0403 273.587 64.779 271.516C65.5624 269.319 68.6807 262.844 67.9096 260.527C66.8175 257.246 66.2711 267.297 66.1541 270.754C66.0748 273.097 64.9428 277.008 66.7685 273.215C67.3503 272.007 69.2283 267.052 69.1969 267.413C68.9322 270.463 67.7048 273.606 67.7048 276.673C67.7048 279.811 69.3578 269.708 72.2105 268.41C72.9198 268.087 71.9179 274.043 71.9179 274.915C71.9179 276.502 73.4393 268.815 73.4393 270.402C73.4393 270.844 72.8081 273.519 72.3275 272.688C70.358 269.281 68.8762 267.175 64.8375 265.948C62.9982 265.389 57.1516 265.772 59.0738 265.772C60.3372 265.772 62.3215 261.369 63.7257 262.52C65.5888 264.046 63.0319 268.92 62.4384 270.578C61.4666 273.293 60.8581 269.475 63.2576 269.758C65.7578 270.052 63.207 279.298 64.6035 277.2C65.2516 276.227 67.2148 271.423 67.1489 271.985C65.8741 282.837 66.1394 269.017 68.2314 272.16" stroke="#00ADB5" stroke-opacity="0.5" stroke-linecap="round" stroke-linejoin="round"/>
<path d="M325.232 116.037C331.932 115.706 338.403 118.187 337.344 110.235C336.82 106.295 334.615 99.8542 335.764 95.9945C336.985 91.8969 344.476 82.6558 338.076 79.761C332.709 77.3336 325.695 84.198 324.705 88.8448C324.293 90.7774 324.381 96.815 327.572 96.815C329.984 96.815 331.524 94.4437 333.629 96.5513C336.38 99.3065 336.871 101.82 334.916 105.283C330.224 113.597 311.661 104.311 321.662 94.295C323.033 92.9221 328.455 86.6259 331.025 88.4345C334.56 90.9228 334.082 97.4012 332.254 100.624C330.43 103.838 323.738 107.204 321.106 103.086C319.806 101.051 320.428 99.6866 322.598 99.6866" stroke="#00ADB5" stroke-opacity="0.5" stroke-linecap="round" stroke-linejoin="round"/>
<path d="M381.337 165.397C381.955 165.147 401.221 155.622 400.325 160.856C399.844 163.665 400.165 166.284 400.559 169.09C400.71 170.163 403.321 178.525 400.705 178.525C395.831 178.525 391.073 176.073 386.193 177.001C384.17 177.386 380.141 178.774 379.991 175.536C379.878 173.108 377.864 162.192 382.653 163.258C386.601 164.137 386.772 160.999 383.97 167.976C383.572 168.967 380.957 176.408 381.395 176.064C385.776 172.616 388.179 165.987 392.191 161.969C394.697 159.46 390.402 169.531 389.88 170.789C387.214 177.217 394.028 165.342 394.795 164.167C398.163 159.008 395.606 168.243 395.088 169.764C393.53 174.333 398.319 165.8 400.237 164.665C406.593 160.904 400.588 173.895 399.242 171.199" stroke="#00ADB5" stroke-opacity="0.5" stroke-linecap="round" stroke-linejoin="round"/>
<path d="M329.445 264.776C329.747 272.529 329.612 276.758 336.174 271.867C338.036 270.48 337.245 273.763 336.788 274.563C336.026 275.9 331.555 282.619 336.057 280.043C337.197 279.39 340.27 278.088 340.27 280.599C340.27 280.996 338.892 285.847 340.241 284.497C342.451 282.283 342.491 273.938 342.611 270.695C342.637 269.987 342.946 269.164 342.318 269.523C339.09 271.371 337.557 281.043 335.881 284.819C334.435 288.079 330.264 284.238 327.865 282.709C323.318 279.811 326.177 281.869 326.285 281.654" stroke="#00ADB5" stroke-opacity="0.5" stroke-linecap="round" stroke-linejoin="round"/>
<path d="M293.107 333.871C293.087 334.117 292.469 349.258 292.58 341.9C292.614 339.654 292.549 337.407 292.58 335.161C292.667 328.782 293.804 331.741 296.559 334.369C297.822 335.574 302.457 338.175 301.708 340.611C301.488 341.328 294.048 342.626 292.872 343.072C291.991 343.407 286.787 346.689 286.787 346.53C286.787 342.611 288.165 338.369 288.63 334.457C289.615 326.173 295.338 348.349 295.71 342.75C295.798 341.432 295.74 333.585 295.74 335.541C295.74 336.999 296.793 344.766 296.793 339.673C296.793 338.521 296.793 337.368 296.793 336.215C296.793 335.672 297.089 338.273 297.29 337.768C298.02 335.941 296.793 332.268 296.793 336.743C296.793 341.766 295.387 338.149 292.317 338.149C289.69 338.149 288.186 347.789 289.537 345.534C290.721 343.558 288.389 335.513 289.42 339.644C289.96 341.806 291.257 339.416 292.053 338.618" stroke="#00ADB5" stroke-opacity="0.5" stroke-linecap="round" stroke-linejoin="round"/>
<path fill-rule="evenodd" clip-rule="evenodd" d="M290.611 278.285C288.169 277.393 285.842 276.088 283.72 274.277C267.696 260.605 274.567 239.978 284.264 229.239C293.962 218.5 353.284 222.783 325.299 272.533C325.181 272.604 325.061 272.675 324.939 272.747C321.81 282.718 324.449 291.27 327.615 301.532C328.906 305.717 330.285 310.186 331.396 315.152L301.716 313.022C293.558 301.928 290.466 290.745 290.611 278.285Z" fill="#F5B9AB"/>
<path d="M283.72 274.277L284.173 273.745L284.173 273.745L283.72 274.277ZM290.611 278.285L290.851 277.628C291.13 277.73 291.314 277.997 291.31 278.294L290.611 278.285ZM284.264 229.239L283.745 228.769L284.264 229.239ZM325.299 272.533L325.909 272.876C325.849 272.981 325.764 273.07 325.661 273.132L325.299 272.533ZM324.939 272.747L324.272 272.537C324.324 272.372 324.435 272.232 324.584 272.144L324.939 272.747ZM327.615 301.532L328.283 301.326L328.283 301.326L327.615 301.532ZM331.396 315.152L332.078 315C332.127 315.216 332.07 315.442 331.926 315.609C331.782 315.777 331.567 315.866 331.346 315.85L331.396 315.152ZM301.716 313.022L301.667 313.72C301.462 313.706 301.275 313.602 301.153 313.437L301.716 313.022ZM284.173 273.745C286.228 275.498 288.481 276.762 290.851 277.628L290.372 278.942C287.856 278.023 285.456 276.678 283.266 274.809L284.173 273.745ZM284.783 229.708C280.016 234.987 275.95 242.697 275.042 250.737C274.137 258.745 276.361 267.079 284.173 273.745L283.266 274.809C275.055 267.803 272.703 258.988 273.652 250.579C274.598 242.202 278.816 234.229 283.745 228.769L284.783 229.708ZM324.69 272.189C331.639 259.835 333.097 250.427 331.378 243.436C329.664 236.464 324.752 231.745 318.614 228.835C312.465 225.92 305.135 224.849 298.739 225.176C295.543 225.339 292.602 225.85 290.177 226.64C287.738 227.435 285.88 228.493 284.783 229.708L283.745 228.769C285.073 227.299 287.19 226.142 289.743 225.31C292.308 224.474 295.374 223.946 298.666 223.778C305.246 223.442 312.815 224.538 319.211 227.57C325.618 230.607 330.895 235.615 332.736 243.103C334.573 250.572 332.952 260.355 325.909 272.876L324.69 272.189ZM324.584 272.144C324.704 272.073 324.822 272.003 324.938 271.933L325.661 273.132C325.54 273.204 325.418 273.277 325.294 273.351L324.584 272.144ZM326.947 301.738C323.79 291.505 321.068 282.746 324.272 272.537L325.606 272.958C322.552 282.69 325.108 291.035 328.283 301.326L326.947 301.738ZM330.714 315.305C329.609 310.369 328.239 305.925 326.947 301.738L328.283 301.326C329.573 305.508 330.96 310.003 332.078 315L330.714 315.305ZM301.766 312.324L331.445 314.454L331.346 315.85L301.667 313.72L301.766 312.324ZM291.31 278.294C291.166 290.613 294.218 301.645 302.279 312.608L301.153 313.437C292.899 302.211 289.765 290.877 289.912 278.276L291.31 278.294Z" fill="black"/>
<path d="M330.624 242.49C335.268 248.961 330.266 264.944 326.575 268.942C357.158 251.947 337.796 213.601 328.36 220.594C326.822 206.417 310.58 201.415 299.507 213.405C271.747 190.952 270.286 229.211 280.085 235.029C289.883 240.847 301.771 235.306 307.94 238.307C314.11 241.307 317.917 259.481 319.915 249.394C321.914 239.307 324.818 234.401 330.624 242.49Z" fill="#00ADB5" stroke="black" stroke-width="1.39887"/>
<path d="M358.079 524.787L315.03 521.656L325.387 405.604C325.387 405.604 275.436 287.064 318.312 287.065C378.893 287.067 399.154 380.546 398.4 405.607C397.645 430.667 358.079 524.787 358.079 524.787Z" fill="#EEEEEE" stroke="black" stroke-width="1.39887"/>
<path d="M314.694 526.71L315.299 521.439L358.651 523.184L357.692 531.636C356.149 545.233 342.53 553.998 329.514 549.77C319.717 546.588 313.518 536.942 314.694 526.71Z" fill="#F5B9AB" stroke="black" stroke-width="1.39887" stroke-linejoin="round"/>
<path d="M252.211 441.274C224.208 414.081 259.008 324.01 264.684 313.29C272.947 298.015 297.75 271.441 330.852 287.35C380.909 311.406 358.035 430.436 349.037 471.696L252.211 441.274Z" fill="#EEEEEE" stroke="black" stroke-width="1.39887"/>
<path d="M34.1541 535.672L29.6415 494.819C29.6415 494.819 134.411 460.812 220.758 448.053L339.316 458.31C357.125 500.458 348.342 577.918 216.256 542.307L34.1541 535.672Z" fill="#00ADB5" stroke="black" stroke-width="1.39887"/>
<path fill-rule="evenodd" clip-rule="evenodd" d="M161.109 464.096L142.494 522.08L103.438 520.169L85.6074 411.941C82.6593 394.046 96.4421 377.786 114.558 377.786L138.767 377.786L140.436 375.172L148.548 377.786C155.032 377.793 160.903 379.86 165.662 383.299L329.854 436.196C355.206 444.364 366.601 473.836 353.357 496.984L328.215 540.923C315.186 563.693 284.722 569.052 264.743 552.088L161.109 464.096Z" fill="#00ADB5"/>
<path d="M161.109 464.096L161.562 463.563L160.763 462.885L160.443 463.882L161.109 464.096ZM142.494 522.08L142.46 522.778L142.996 522.804L143.16 522.293L142.494 522.08ZM103.438 520.169L102.747 520.282L102.839 520.84L103.403 520.867L103.438 520.169ZM85.6074 411.941L84.9173 412.055L84.9173 412.055L85.6074 411.941ZM114.558 377.786L114.558 377.086L114.558 377.786ZM138.767 377.786L138.767 378.485L139.15 378.485L139.356 378.162L138.767 377.786ZM140.436 375.172L140.651 374.507L140.137 374.341L139.847 374.796L140.436 375.172ZM148.548 377.786L148.334 378.451L148.438 378.485L148.547 378.485L148.548 377.786ZM165.662 383.299L165.253 383.866L165.343 383.931L165.448 383.965L165.662 383.299ZM329.854 436.196L329.639 436.862L329.639 436.862L329.854 436.196ZM353.357 496.984L353.964 497.331L353.964 497.331L353.357 496.984ZM328.215 540.923L327.608 540.575L327.608 540.575L328.215 540.923ZM264.743 552.088L265.195 551.555L265.195 551.555L264.743 552.088ZM160.443 463.882L141.828 521.866L143.16 522.293L161.775 464.31L160.443 463.882ZM142.528 521.381L103.472 519.47L103.403 520.867L142.46 522.778L142.528 521.381ZM104.128 520.055L86.2975 411.827L84.9173 412.055L102.747 520.282L104.128 520.055ZM86.2975 411.827C83.4194 394.357 96.8747 378.485 114.558 378.485L114.558 377.086C96.0095 377.086 81.8991 393.735 84.9173 412.055L86.2975 411.827ZM114.558 378.485L138.767 378.485L138.767 377.086L114.558 377.086L114.558 378.485ZM139.356 378.162L141.026 375.549L139.847 374.796L138.177 377.409L139.356 378.162ZM140.222 375.838L148.334 378.451L148.762 377.12L140.651 374.507L140.222 375.838ZM148.547 378.485C154.879 378.493 160.609 380.51 165.253 383.866L166.072 382.732C161.198 379.21 155.184 377.094 148.549 377.086L148.547 378.485ZM165.448 383.965L329.639 436.862L330.068 435.53L165.877 382.634L165.448 383.965ZM329.639 436.862C354.568 444.893 365.774 473.874 352.749 496.636L353.964 497.331C367.429 473.799 355.845 443.835 330.068 435.53L329.639 436.862ZM352.749 496.636L327.608 540.575L328.822 541.27L353.964 497.331L352.749 496.636ZM327.608 540.575C314.795 562.967 284.841 568.235 265.195 551.555L264.29 552.621C284.604 569.869 315.576 564.42 328.822 541.27L327.608 540.575ZM265.195 551.555L161.562 463.563L160.656 464.629L264.29 552.621L265.195 551.555Z" fill="black"/>
<path d="M102.988 519.727L142.926 522.093L146.022 555.671C146.022 555.671 110.986 554.654 89.7321 547.996L104.018 540.964L102.988 519.727Z" fill="#EEEEEE" stroke="black" stroke-width="1.39887" stroke-linejoin="round"/>
<rect width="97.9122" height="18.3343" rx="2.00878" transform="matrix(0.258451 0.966024 0.965827 -0.259187 89.5281 274.956)" fill="#EEEEEE" stroke="black" stroke-width="1.39887"/>
<rect width="97.773" height="18.3604" rx="2.00878" transform="matrix(-1 0 0 1 208.723 359.966)" fill="#00ADB5" stroke="black" stroke-width="1.39887"/>
<path d="M29.9524 494.848L34.8922 535.693L5.0809 543.933C5.0809 543.933 -0.535748 508.741 2.18599 486.262L12.0313 499.216L29.9524 494.848Z" fill="#EEEEEE" stroke="black" stroke-width="1.39887" stroke-linejoin="round"/>
<path d="M177.994 389.207L200.366 351.874L268.96 389.282C265.815 346.109 295.402 283.978 326.471 287.763C380.976 294.402 340.821 428.955 305.116 452.672C269.41 476.389 177.994 389.207 177.994 389.207Z" fill="#EEEEEE"/>
<path d="M348.174 370.341C339.738 405.742 321.933 441.501 305.116 452.672C269.41 476.389 177.994 389.207 177.994 389.207L200.366 351.874L268.96 389.282L292.274 330.703" stroke="black" stroke-width="1.39887"/>
<path d="M196.301 349.047L200.578 352.109L178.038 389.238L171.156 384.325C160.01 376.368 158.939 360.183 168.94 350.832C176.47 343.79 187.916 343.044 196.301 349.047Z" fill="#F5B9AB" stroke="black" stroke-width="1.39887" stroke-linejoin="round"/>
</svg>
